<?xml version="1.0" encoding="utf-8"?>
<!-- Generator: Adobe Illustrator 25.4.1, SVG Export Plug-In . SVG Version: 6.00 Build 0)  -->
<svg version="1.1"
	 id="svg2" inkscape:export-xdpi="755.99982" inkscape:export-ydpi="755.99982" xmlns:cc="http://creativecommons.org/ns#" xmlns:dc="http://purl.org/dc/elements/1.1/" xmlns:inkscape="http://www.inkscape.org/namespaces/inkscape" xmlns:rdf="http://www.w3.org/1999/02/22-rdf-syntax-ns#" xmlns:sodipodi="http://sodipodi.sourceforge.net/DTD/sodipodi-0.dtd" xmlns:svg="http://www.w3.org/2000/svg"
	 xmlns="http://www.w3.org/2000/svg" xmlns:xlink="http://www.w3.org/1999/xlink" x="0px" y="0px" viewBox="0 0 1200 1200"
	 style="enable-background:new 0 0 1200 1200;" xml:space="preserve">
<style type="text/css">
	.st0{fill:#CCCCCC;}
	.st1{fill-rule:evenodd;clip-rule:evenodd;fill:#FFFFFF;}
	.st2{fill-rule:evenodd;clip-rule:evenodd;}
</style>
<sodipodi:namedview  bordercolor="#666666" borderlayer="true" borderopacity="1.0" id="base" inkscape:current-layer="layer1" inkscape:cx="549.75972" inkscape:cy="592.84839" inkscape:document-units="px" inkscape:pageopacity="0.0" inkscape:pageshadow="2" inkscape:showpageshadow="false" inkscape:window-height="1027" inkscape:window-maximized="1" inkscape:window-width="1920" inkscape:window-x="-5" inkscape:window-y="-5" inkscape:zoom="0.49497475" pagecolor="#ffffff" showgrid="false" units="px">
	</sodipodi:namedview>
<g id="layer2" inkscape:groupmode="layer" inkscape:label="Background" sodipodi:insensitive="true">
	<rect id="rect4135" y="0" class="st0" width="338.7" height="338.7"/>
</g>
<g id="layer1" transform="translate(0,-52.3622)" inkscape:groupmode="layer" inkscape:label="Dawnstar">
	
		<path id="path4159-4" inkscape:connector-curvature="0" sodipodi:nodetypes="cccccccccccccccccccccccccccsccccccccccccccccccccccscccccccccccccccccsccscccccccccccccc" class="st1" d="
		M169.3,52.4l-25.3,105.5l4.6,6.5l-14.1,19.4l9.4,9.4c0.4-0.4,0.8-0.7,1.3-1.1c-0.4,0.4-0.9,0.7-1.3,1.1l0,0c-0.6,0.5-1.1,1-1.7,1.5
		l0,0c-1.3,1.3-2.5,2.8-3.7,4.3c-0.4,0.5-0.7,1-1.1,1.5c0.1-0.1,0.2-0.2,0.2-0.4c0.3-0.4,0.6-0.8,0.8-1.2c0.3-0.4,0.6-0.8,0.9-1.2
		c0.1-0.1,0.2-0.2,0.2-0.3c0,0,0,0,0,0c0.3-0.4,0.6-0.7,0.9-1.1l-9.4-9.4l-19.4,14.1l-6.5-4.6L0,221.7L105.5,247l6.5-4.6l19.4,14.1
		l9.4-9.4c0.5,0.6,1,1.1,1.5,1.7c1.3,1.3,2.8,2.5,4.3,3.7c0.5,0.4,1,0.7,1.5,1.1c-0.1-0.1-0.2-0.2-0.4-0.2c-0.4-0.3-0.8-0.6-1.2-0.8
		c-0.4-0.3-0.8-0.6-1.2-0.9c-0.1-0.1-0.2-0.2-0.3-0.2c0,0,0,0,0,0c-0.4-0.3-0.7-0.6-1.1-0.9l-9.4,9.4l14.1,19.4l-4.6,6.5L169.3,391
		l25.3-105.5l-4.6-6.5l14.1-19.4l-9.4-9.4c-0.4,0.4-0.8,0.7-1.3,1.1c0.4-0.4,0.9-0.7,1.3-1.1l0,0c0.6-0.5,1.1-1,1.7-1.5
		c1.3-1.3,2.5-2.8,3.7-4.3c0.4-0.5,0.7-1,1.1-1.5c-0.1,0.1-0.2,0.2-0.2,0.4c-0.3,0.4-0.6,0.8-0.8,1.2c-0.3,0.4-0.6,0.8-0.9,1.2
		c-0.1,0.1-0.2,0.2-0.2,0.3c0,0,0,0,0,0c-0.3,0.4-0.6,0.7-0.9,1.1l9.4,9.4l19.4-14.1l6.5,4.6l105.5-25.3l-105.5-25.3l-6.5,4.6
		l-19.4-14.1l-9.4,9.4c0.4,0.4,0.7,0.8,1.1,1.3c-0.4-0.4-0.7-0.9-1.1-1.3l0,0c-0.5-0.6-1-1.1-1.5-1.7l0,0c-1.3-1.3-2.8-2.5-4.3-3.7
		c-0.5-0.4-1-0.7-1.5-1.1c0.1,0.1,0.2,0.2,0.4,0.2c0.4,0.3,0.8,0.6,1.2,0.8c0.4,0.3,0.8,0.6,1.2,0.9c0.1,0.1,0.2,0.2,0.3,0.2
		c0,0,0,0,0,0c0.4,0.3,0.7,0.6,1.1,0.9l9.4-9.4L190,164.3l4.6-6.5L169.3,52.4L169.3,52.4z M139.7,245.8c0.4,0.4,0.7,0.9,1.1,1.3l0,0
		C140.4,246.6,140.1,246.2,139.7,245.8L139.7,245.8z"/>
	<path id="path4159" inkscape:connector-curvature="0" class="st2" d="M169.3,52.4l-25.3,105.5l4.6,6.5l-14.1,19.4l9.4,9.4
		c0.4-0.4,0.8-0.7,1.3-1.1c-0.4,0.4-0.9,0.7-1.3,1.1l0,0c-0.6,0.5-1.1,1-1.7,1.5l0,0c-1.3,1.3-2.5,2.8-3.7,4.3
		c-0.4,0.5-0.7,1-1.1,1.5c0.1-0.1,0.2-0.2,0.2-0.4c0.3-0.4,0.6-0.8,0.8-1.2c0.3-0.4,0.6-0.8,0.9-1.2c0.1-0.1,0.2-0.2,0.2-0.3
		c0,0,0,0,0,0c0.3-0.4,0.6-0.7,0.9-1.1l-9.4-9.4l-19.4,14.1l-6.5-4.6L0,221.7L105.5,247l6.5-4.6l19.4,14.1l9.4-9.4
		c0.5,0.6,1,1.1,1.5,1.7c1.3,1.3,2.8,2.5,4.3,3.7c0.5,0.4,1,0.7,1.5,1.1c-0.1-0.1-0.2-0.2-0.4-0.2c-0.4-0.3-0.8-0.6-1.2-0.8
		c-0.4-0.3-0.8-0.6-1.2-0.9c-0.1-0.1-0.2-0.2-0.3-0.2c0,0,0,0,0,0c-0.4-0.3-0.7-0.6-1.1-0.9l-9.4,9.4l14.1,19.4l-4.6,6.5L169.3,391
		l25.3-105.5l-4.6-6.5l14.1-19.4l-9.4-9.4c-0.4,0.4-0.8,0.7-1.3,1.1c0.4-0.4,0.9-0.7,1.3-1.1l0,0c0.6-0.5,1.1-1,1.7-1.5
		c1.3-1.3,2.5-2.8,3.7-4.3c0.4-0.5,0.7-1,1.1-1.5c-0.1,0.1-0.2,0.2-0.2,0.4c-0.3,0.4-0.6,0.8-0.8,1.2c-0.3,0.4-0.6,0.8-0.9,1.2
		c-0.1,0.1-0.2,0.2-0.2,0.3c0,0,0,0,0,0c-0.3,0.4-0.6,0.7-0.9,1.1l9.4,9.4l19.4-14.1l6.5,4.6l105.5-25.3l-105.5-25.3l-6.5,4.6
		l-19.4-14.1l-9.4,9.4c0.4,0.4,0.7,0.8,1.1,1.3c-0.4-0.4-0.7-0.9-1.1-1.3l0,0c-0.5-0.6-1-1.1-1.5-1.7l0,0c-1.3-1.3-2.8-2.5-4.3-3.7
		c-0.5-0.4-1-0.7-1.5-1.1c0.1,0.1,0.2,0.2,0.4,0.2c0.4,0.3,0.8,0.6,1.2,0.8c0.4,0.3,0.8,0.6,1.2,0.9c0.1,0.1,0.2,0.2,0.3,0.2
		c0,0,0,0,0,0c0.4,0.3,0.7,0.6,1.1,0.9l9.4-9.4L190,164.3l4.6-6.5L169.3,52.4L169.3,52.4z M169.3,73.5l19.8,82.7l-2.5,3.5v0
		l-3.2,4.4l-1.7,2.4l0,0l-12,16.9c-0.1,0-0.3,0-0.4,0c-0.1,0-0.3,0-0.4,0l0,0c-0.5,0-0.9,0-1.4,0c0.5,0,0.9,0,1.4,0l-10.3-14.4
		l1.9-2.7l8.7,12.3l10.5-14.7l1.7-2.4l0,0l3.2-4.4l1.3-1.8l-16.7-69.6l-16.7,69.6l1.3,1.8l1.4,2l-1.9,2.7l-1.4-2l0,0l-2.5-3.5
		L169.3,73.5L169.3,73.5z M169.3,105.7l10.8,45.1l-10.8-14.9l-10.8,14.9C158.5,150.8,169.3,105.7,169.3,105.7z M169.3,144.7
		l10.5,14.4l-1.7,2.4l-8.7-12.2L158.8,164l-1.9,2.7L146,181.7l6,6h0l1.4,1.4L150,191l-1.4-1.4c0,0,0,0,0,0l-6.9-6.9l13.4-18.5
		l1.9-2.6L169.3,144.7L169.3,144.7z M185.3,166.6l11.7,16.1l-6.9,6.9l0,0l-1.5,1.5l-1.5,1.5l-1.7,1.7l-1.5,1.5l-5.1,5.1l5.7,5.7
		l5.7,5.7l4.9-4.9l1.7,3.5l-4,4l-2.6,2.6l-2.6-2.6l-5.7-5.7l0,0l-5.7-5.7l-2.6-2.6l2.6-2.6l3.4-3.4l2.4-2.4l1.8-1.8l1.6-1.6h0
		l1.6-1.6l6-6l-9.2-12.6L185.3,166.6L185.3,166.6z M167.5,183.5c-0.5,0-1,0.1-1.5,0.1c0,0,0.1,0,0.1,0h0
		C166.6,183.6,167.1,183.6,167.5,183.5L167.5,183.5z M169.3,187.7c3.7,0,7.4,0.7,10.9,1.9l-1.9,1.9c-2.8-0.9-5.7-1.3-8.6-1.4
		c-4.4-0.1-8.8,0.8-12.9,2.6l-3.4,1.7c-2.4,1.4-4.5,3-6.5,4.9l7.4,7.4l5.7-5.7l-4.9-4.9l3.5-1.7l4,4l2.6,2.6l-2.6,2.6l-5.7,5.7l0,0
		l-5.7,5.7l-2.6,2.6l-2.6-2.6l-3.4-3.4l-2.4-2.4l-1.8-1.8l-1.6-1.6v0l-1.6-1.6l-6-6l-12.6,9.2l-2.5-1.7l16.1-11.7l6.9,6.9l0,0
		l1.5,1.5l1.5,1.5l1.7,1.7l1.5,1.5l5.1,5.1l5.7-5.7l-7.4-7.4l0,0c-1.1,1.2-2.2,2.4-3.1,3.8l-1.7-1.7c1-1.3,2-2.5,3.2-3.7l0,0
		c1.9-1.9,4.1-3.6,6.4-5l3.4-1.8C159.6,188.8,164.4,187.7,169.3,187.7L169.3,187.7z M208.4,194.1l18.5,13.4l2.6,1.9l16.8,12.2
		l-14.4,10.5l-2.4-1.7l12.2-8.7l-14.7-10.5l-2.7-1.9l-15.1-10.9l-6,6v0l-1.4,1.4l-1.9-3.3l1.4-1.4c0,0,0,0,0,0L208.4,194.1
		L208.4,194.1z M189.7,194.5c1.3,1,2.5,2,3.7,3.2l0,0c1.9,1.9,3.6,4.1,5,6.4l1.8,3.4c2.1,4.5,3.2,9.3,3.2,14.2
		c0,3.7-0.7,7.4-1.9,10.9l-1.9-1.9c0.9-2.8,1.3-5.7,1.4-8.6c0.1-4.4-0.8-8.8-2.6-12.9l-1.7-3.4c-1.4-2.4-3-4.5-4.9-6.5l0,0
		c-1.2-1.1-2.4-2.2-3.7-3.1L189.7,194.5L189.7,194.5z M103.9,201.9l3.5,2.5h0l4.4,3.2l2.4,1.7l0,0l16.9,12c0,0.1,0,0.3,0,0.4
		c0,0.1,0,0.3,0,0.4l0,0c0,0.5,0,0.9,0,1.4c0-0.5,0-0.9,0-1.4l-14.4,10.3l-2.7-1.9l12.3-8.7l-14.7-10.5l-2.4-1.7l0,0l-4.4-3.2
		l-1.8-1.3l-69.6,16.7l69.6,16.7l1.8-1.3l2-1.4l2.7,1.9l-2,1.4l0,0l-3.5,2.5l-82.7-19.8v0L103.9,201.9L103.9,201.9z M234.8,201.9
		l82.7,19.8l-82.7,19.8l-3.5-2.5h0l-4.4-3.2l-2.4-1.7l0,0l-16.9-12c0-0.1,0-0.3,0-0.4c0-0.1,0-0.3,0-0.4l0,0c0-0.5,0-0.9,0-1.4
		c0,0.5,0,0.9,0,1.4l14.4-10.3l2.7,1.9l-12.3,8.7l14.7,10.5l2.4,1.7l0,0l4.4,3.2l1.8,1.3l69.6-16.7L235.7,205l-1.8,1.3l-2,1.4
		l-2.7-1.9l2-1.4l0,0L234.8,201.9L234.8,201.9z M169.3,205.1l8.3,8.3l0,0l8.3,8.3l-8.3,8.3v0l-8.3,8.3L161,230h0l-8.3-8.3l8.3-8.3h0
		L169.3,205.1L169.3,205.1z M137.2,210.7l1.9,1.9c-0.9,2.8-1.3,5.7-1.4,8.6c-0.1,4.4,0.8,8.8,2.6,12.9l1.7,3.4
		c1.4,2.4,3,4.5,4.9,6.5l7.4-7.4l-5.7-5.7l-4.9,4.9l-1.7-3.5l4-4l2.6-2.6l2.6,2.6l5.7,5.7l5.7,5.7l2.6,2.6l-2.6,2.6l-3.4,3.4
		l-2.4,2.4l-1.8,1.8l-1.6,1.6h0l-1.6,1.6l-6,6l9.2,12.6l-1.7,2.5l-11.7-16.1l6.9-6.9l0,0l1.5-1.5l1.5-1.5l1.7-1.7l1.5-1.5l5.1-5.1
		l-5.7-5.7l-7.4,7.4c1.2,1.1,2.4,2.2,3.8,3.1l-1.7,1.7c-1.3-1-2.5-2-3.7-3.2c-1.9-1.9-3.6-4.1-5-6.4l-1.8-3.4
		c-2.1-4.5-3.2-9.3-3.2-14.2C135.4,218,136,214.3,137.2,210.7z M98.4,210.9l-14.9,10.8l14.9,10.8l-45.1-10.8L98.4,210.9z
		 M240.3,210.9l45.1,10.8l-45.1,10.8l14.9-10.8L240.3,210.9z M106.7,211.2l2.4,1.7l-12.2,8.7l14.7,10.5l2.7,1.9l15.1,10.9l6-6v0
		l1.4-1.4l1.9,3.3l-1.4,1.4c0,0,0,0,0,0l-6.9,6.9l-18.5-13.4l-2.6-1.9l-16.8-12.2L106.7,211.2L106.7,211.2z M207.4,218.4
		c0,0,0,0.1,0,0.1v0c0,0.5,0.1,0.9,0.1,1.4C207.5,219.4,207.4,218.9,207.4,218.4L207.4,218.4z M131.2,223.5c0,0.5,0.1,1,0.1,1.5
		c0,0,0-0.1,0-0.1v0C131.2,224.4,131.2,223.9,131.2,223.5z M190,225.7l2.6,2.6l3.4,3.4l2.4,2.4l1.8,1.8l1.6,1.6v0l1.6,1.6l6,6
		l12.6-9.2l2.5,1.7l-16.1,11.7l-6.9-6.9l0,0l-1.5-1.5l-1.5-1.5l-1.7-1.7l-1.5-1.5l-5.1-5.1l-5.7,5.7l7.4,7.4
		c1.1-1.2,2.2-2.4,3.1-3.8l1.7,1.7c-1,1.3-2,2.5-3.2,3.7c-1.9,1.9-4.1,3.6-6.4,5l-3.4,1.8c-4.5,2.1-9.3,3.2-14.2,3.2
		c-3.7,0-7.4-0.7-10.9-1.9l1.9-1.9c2.8,0.9,5.7,1.3,8.6,1.4c4.4,0.1,8.8-0.8,12.9-2.6l3.4-1.7c2.4-1.4,4.5-3,6.5-4.9l-7.4-7.4
		l-5.7,5.7l4.9,4.9L180,249l-4-4l-2.6-2.6l2.6-2.6l5.7-5.7l5.7-5.7L190,225.7L190,225.7z M139.7,245.8c0.4,0.4,0.7,0.9,1.1,1.3l0,0
		C140.4,246.6,140.1,246.2,139.7,245.8z M188.6,252.4l1.4,1.4c0,0,0,0,0,0l6.9,6.9l-13.4,18.5l-1.9,2.6l-12.2,16.8l-10.5-14.4
		l1.7-2.4l8.7,12.2l10.5-14.7l1.9-2.7l10.9-15.1l-6-6h0l-1.4-1.4L188.6,252.4L188.6,252.4z M172.6,259.7c0,0-0.1,0-0.1,0h0
		c-0.5,0-0.9,0.1-1.4,0.1C171.6,259.8,172.1,259.8,172.6,259.7L172.6,259.7z M171.1,259.9c-0.5,0-0.9,0-1.4,0l10.3,14.4l-1.9,2.7
		l-8.7-12.3l-10.5,14.7l-1.7,2.4l0,0l-3.2,4.4l-1.3,1.8l16.7,69.6l16.7-69.6l-1.3-1.8l-1.4-2l1.9-2.7l1.4,2l0,0l2.5,3.5l-19.8,82.7
		l-19.8-82.7l2.5-3.5v0l3.2-4.4l1.7-2.4l0,0l12-16.9c0.1,0,0.3,0,0.4,0c0.1,0,0.3,0,0.4,0l0,0C170.2,259.9,170.7,259.9,171.1,259.9
		L171.1,259.9z M158.5,292.6l10.8,14.9l10.8-14.9l-10.8,45.1L158.5,292.6z"/>
</g>
</svg>
