<?xml version="1.0" encoding="utf-8"?>
<!-- Generator: Adobe Illustrator 25.4.1, SVG Export Plug-In . SVG Version: 6.00 Build 0)  -->
<svg version="1.1" id="Слой_1" xmlns="http://www.w3.org/2000/svg" xmlns:xlink="http://www.w3.org/1999/xlink" x="0px" y="0px"
	 viewBox="0 0 50 50" style="enable-background:new 0 0 50 50;" xml:space="preserve">
<style type="text/css">
	.st0{fill:none;stroke:#000000;stroke-width:2;stroke-miterlimit:10;}
	.st1{fill:none;stroke:#FFFFFF;stroke-miterlimit:10;}
</style>
<line class="st0" x1="17.7" y1="24.8" x2="1.9" y2="14.8"/>
<polyline class="st0" points="47.3,15.6 29.5,26.3 23,22.3 "/>
<polyline class="st1" points="23,22.3 16.5,18.3 16.5,16.1 33.2,16.1 33.2,18.4 20.6,26.5 16.9,24.2 "/>
<line class="st1" x1="2.5" y1="15.2" x2="17.5" y2="24.6"/>
<polyline class="st0" points="33.8,24.8 24.6,18.9 21.9,20.6 "/>
<polyline class="st0" points="20.1,21.8 13,26.3 24.6,33.4 36.1,26.3 33.8,24.8 "/>
<polyline class="st1" points="46.6,16 29.5,26.3 23,22.3 "/>
<polyline class="st0" points="23,22.3 16.5,18.3 16.5,16.1 33.2,16.1 33.2,18.4 20.6,26.5 17.6,24.7 "/>
<polyline class="st1" points="20.1,21.8 13,26.3 24.6,33.4 36.1,26.3 33.8,24.8 "/>
<polyline class="st1" points="32,23.6 30.7,22.8 24.6,18.9 21.9,20.7 "/>
<line class="st0" x1="22.2" y1="20.4" x2="19.6" y2="22.1"/>
<line class="st1" x1="35.3" y1="25.7" x2="31.4" y2="23.3"/>
<line class="st1" x1="22.3" y1="20.4" x2="19.4" y2="22.2"/>
<line class="st1" x1="22.3" y1="20.4" x2="19.4" y2="22.2"/>
<line class="st0" x1="22.6" y1="22.1" x2="19.5" y2="20.2"/>
<polyline class="st1" points="23.9,22.9 16.5,18.3 16.5,16.1 33.2,16.1 33.2,18.4 20.6,26.5 17.5,24.6 "/>
<line class="st0" x1="35.3" y1="22.8" x2="31.2" y2="25.2"/>
<line class="st1" x1="35.3" y1="22.8" x2="31.2" y2="25.2"/>
<line class="st0" x1="30.3" y1="22.5" x2="27.2" y2="20.6"/>
<line class="st1" x1="31.7" y1="23.4" x2="26.5" y2="20.2"/>
</svg>
