<?xml version="1.0" encoding="utf-8"?>
<!-- Generator: Adobe Illustrator 25.4.1, SVG Export Plug-In . SVG Version: 6.00 Build 0)  -->
<svg version="1.1"
	 id="svg4332" inkscape:export-filename="C:\Users\user1\OneDrive\Nexus Files\Artist&apos;s Resource\Hold Emblems\Final Product\v1.0 - Artist&apos;s Resource - Riften.png" xmlns:cc="http://creativecommons.org/ns#" xmlns:dc="http://purl.org/dc/elements/1.1/" xmlns:inkscape="http://www.inkscape.org/namespaces/inkscape" xmlns:rdf="http://www.w3.org/1999/02/22-rdf-syntax-ns#" xmlns:sodipodi="http://sodipodi.sourceforge.net/DTD/sodipodi-0.dtd" xmlns:svg="http://www.w3.org/2000/svg"
	 xmlns="http://www.w3.org/2000/svg" xmlns:xlink="http://www.w3.org/1999/xlink" x="0px" y="0px" viewBox="0 0 1200 1000"
	 style="enable-background:new 0 0 1200 1000;" xml:space="preserve">
<style type="text/css">
	.st0{fill-rule:evenodd;clip-rule:evenodd;fill:#FFFFFF;}
	.st1{fill-rule:evenodd;clip-rule:evenodd;}
</style>
<sodipodi:namedview  bordercolor="#666666" borderlayer="true" borderopacity="1.0" id="base" inkscape:current-layer="layer1" inkscape:cx="403.80214" inkscape:cy="390.43873" inkscape:document-units="px" inkscape:pageopacity="0.0" inkscape:pageshadow="2" inkscape:showpageshadow="false" inkscape:window-height="1027" inkscape:window-maximized="1" inkscape:window-width="1920" inkscape:window-x="-5" inkscape:window-y="-5" inkscape:zoom="0.49497475" pagecolor="#ffffff" showgrid="false" units="px">
	</sodipodi:namedview>
<g id="layer1" transform="translate(0,-52.362161)" inkscape:groupmode="layer" inkscape:label="Riften">
	<g id="g4179" transform="translate(1751.4285,151.42857)">
		<path id="path4266-6" inkscape:connector-curvature="0" sodipodi:nodetypes="ccccccccccccccccccccccccccccccccc" class="st0" d="
			M-1550.7-99.1c20.4,47.5,110.7,203.1,166.1,300c47.3,23.8,99.4,61.7,149.9,104.2c3-3.1,8.2-1.8,11.2-4.9l28.9-30.1
			c4.1-4.5,4.6-12.7,8.7-17.2c77.8,32.5,22.9-18.4,32.5-29.5c2.8-3.3,2.1-10.5,4.9-13.8c-41.6-48.1-78.3-96.9-106.2-145.3
			L-1550.7-99.1z M-1059.9,304l-42.2,28.6c-3.9,3.6-8.9,11.7-12.7,15.4l-31.8,36.6c39.9,38.6,75.7,76.6,103,107.8
			c39.9,50.9,53.5,69.8,85,123.9c-39.1,2.3-72.6-8.4-99.6-24.4l-42.7-0.7l2.9,45.5c62,44,128.3,58.7,219.2,24.8
			c6.5,9.3,19.9,14.7,29.8,14l170,225.3l118.5-7.6l9.1-115.4l-228.3-179.4c-3.2-13.7-6.7-19.6-11.5-27.8
			c50.9-92.4,5.1-189.1-23.1-214.2l-46,0.1l-1,45c20.3,24.5,30.7,58.1,25.4,88.7c-36.1-23.9-81.3-55.4-128.7-95.6
			C-996.7,365.5-1028.8,335.2-1059.9,304L-1059.9,304z"/>
		<path id="path4139-3" inkscape:connector-curvature="0" sodipodi:nodetypes="ccccccccccccccccccccccc" class="st0" d="M-750-98.4
			c-47.6,20.4-203.4,110.5-300.5,165.9c-58.8,116.3-202.6,262.5-292,340.3c-51,39.9-69.9,53.5-124.1,84.9
			c-4.9-35.8,4.9-66.5,22.3-98.1l0.8-1.5l0.5-38.4l-49.1,3.9l-1.5,2c-46.4,62.1-47.8,144.9-18.3,211.9c-9.3,6.5-14.7,19.9-14,29.8
			l-225.6,169.7l7.6,118.3l115.6,9.1l179.7-228c13.7-3.2,19.7-6.7,27.8-11.5c92.9,48.3,180.9,7,214.5-23l-0.1-45.9l-45.1-1
			c-24.5,20.3-58.2,30.7-88.8,25.4c23.9-36.1,55.4-81.2,95.7-128.5c102.1-111.6,217.8-224.4,331-289.5L-750-98.4z"/>
	</g>
	<g id="g4295" transform="matrix(3.625886,0,0,3.6205498,-163.09235,-130.58162)">
		
			<path id="path4266" inkscape:connector-curvature="0" sodipodi:nodetypes="ccccccccccscccccccccccccccccccccccccccccccccccccccccscccccccccccccccccccccccccccccccccccccccccccc" class="st1" d="
			M100.3,50.5c5.6,13.1,30.5,56.1,45.8,82.9c13,6.6,27.4,17,41.4,28.8c0.8-0.8,1.6-1.7,2.5-2.5c-14.2-12.4-27.9-22.5-41-29.1
			c-10.8-19.2-25.4-42.5-36.6-63.6c14.9,10.7,30.7,37.6,43.8,54.6c18.9,7.1,27,15.1,37.4,25.8c1.4,1.4,2.7,2.8,4.1,4.2
			c1.1-1.2,2.3-2.5,3.4-3.7c-1.5-1.5-3-3.1-4.6-4.6c-10.5-10.5-20.9-22-25.3-36.1c-19.9-14.6-43.6-29.9-55.4-44l63.6,35.6
			c8.6,14.3,18.7,27.5,29.6,39.9c0.8-0.9,1.6-1.8,2.3-2.8c-11.5-13.3-21.6-26.8-29.3-40.1L100.3,50.5z M235.7,161.9
			c-0.8,0.7-1.7,1.4-2.5,2.2c20.1,19.8,41.8,38.4,62.5,57.8c-0.4,1.5-1.1,3.4-1.7,4.4l-38.5-27.5c-9.5-6.4-19.7-16-30.8-27
			c-1.1,1-2.1,2-3.2,3c9.8,9.7,19.1,19.7,27.3,31.5l28,38.5c-1.2,0.7-2.4,1.3-3.6,2.1c-20.1-22.8-40.1-45.2-59.4-64.7
			c-0.7,0.7-1.3,1.3-2,2c11,10.7,20.9,21.2,28.4,29.8c11,14.1,14.8,19.3,23.4,34.2c-10.8,0.6-20-2.3-27.5-6.7l-11.8-0.2l0.8,12.6
			c17.1,12.2,35.4,16.2,60.5,6.8c1.8,2.6,5.5,4.1,8.2,3.9l46.9,62.2l32.7-2.1l2.5-31.9l-63-49.6c-0.9-3.8-1.8-5.4-3.2-7.7
			c14-25.5,1.4-52.2-6.4-59.2l-12.7,0l-0.3,12.4c5.6,6.8,8.5,16.1,7,24.5c-10-6.6-22.4-15.3-35.5-26.4
			C253.1,178.9,244.3,170.5,235.7,161.9L235.7,161.9z M294.6,179.9l7.1,0.2c12.9,19,12.9,35.9,4.5,54.8l-0.5,1.1
			c3.6,3.2,6.3,10.6,4.2,16.5c-1.3,3.5-3.2,6.4-6,8.2c-1.6-2.2-2-4.7-2.1-7.2c6.5-4.6,4.1-13-1.9-14.2c-0.8-4.4-2.1-7.6-3.2-10.2
			c4.9-10.6,7.4-25.4-2.1-41L294.6,179.9z M253.3,204.1c15.6,6.3,28.5,18.7,37.2,25.6c2.9,2.3,5.5,6.7,6.5,10
			c-0.6,0.1-3.4,0.1-5.2,0.5c-1.6-5.6-7.2-10.2-11.5-7.7c0.4,3,0.8,5.9,0.2,8.9C269.7,230.1,260.4,218.4,253.3,204.1z M286.5,237.9
			c0.9,0,2,1.5,2.3,3.1c-4.3,4.4-1.8,10.3,2.4,13.1c0.1,2.1,0.3,4.3,1.3,6.9c-2,0.4-5.1-2.1-6.3-5.1c-16.5,8-40.4,8.2-57.1-4.1
			l-0.6-6.5l7,0.1c17.6,9.9,35.4,9.1,47.6-1.2c1.2-1.2,2-2.7,2.2-4.4C285.5,238.4,285.9,237.9,286.5,237.9L286.5,237.9z
			 M300.4,242.8c2,1.5,2.9,4.1,1.1,6.6c-2.9,0.5-6,0.7-9.5,0.7c-2.3-1.7-2.3-5.2-0.8-6.5L300.4,242.8z M313.8,247.1l60,46.6
			l-2.3,29.1l-29.9,1.9l-45.4-62.7c-1.2-2.2-1.8-5.6-1.8-8.6c1.7,0.2,2.8,0.2,4.6-0.2c0.4,3.7,0.8,7.3,2.8,9.8l43.6,55.7l20.9-1.1
			l1.5-20.5l-53.5-44C314.4,250.4,314.1,249.2,313.8,247.1z"/>
		
			<path id="path4139" inkscape:connector-curvature="0" sodipodi:nodetypes="ccccccccccccccccccccccccccccccccccccscccccccccccccscccccccccccccccccccccccccccsccccccc" class="st1" d="
			M321.2,50.7c-13.1,5.6-56.1,30.5-82.9,45.8c-16.2,32.1-55.9,72.5-80.5,94c-14.1,11-19.3,14.8-34.2,23.5
			c-1.3-9.9,1.3-18.4,6.2-27.1l0.2-0.4l0.1-10.6l-13.5,1.1l-0.4,0.6c-12.8,17.1-13.2,40-5,58.5c-2.6,1.8-4.1,5.5-3.9,8.2L45,291.1
			l2.1,32.7l31.9,2.5l49.6-63c3.8-0.9,5.4-1.8,7.7-3.2c25.6,13.3,49.9,1.9,59.2-6.4l0-12.7l-12.4-0.3c-6.8,5.6-16.1,8.5-24.5,7
			c6.6-10,15.3-22.4,26.4-35.5c28.2-30.8,60.1-62,91.3-80L321.2,50.7z M304.8,62.7c-10.7,14.9-37.6,30.7-54.6,43.8
			c-7.1,18.9-15.1,27-25.8,37.4c-20.2,19.4-36.1,39.4-59,55.3l-38.5,28c-0.7-1.2-1.3-2.4-2.1-3.6c49.5-43.7,97.5-86.5,116.3-124.2
			C260.3,88.5,283.6,73.9,304.8,62.7L304.8,62.7z M308.7,66.1l-35.6,63.6c-48.4,29.3-84.2,74.7-123.3,116.4
			c-1.5-0.4-3.4-1.1-4.4-1.7l27.5-38.5c11.5-17,33-36.5,55.6-59.1c10.5-10.5,22-20.9,36.1-25.3C279.2,101.6,294.6,78,308.7,66.1
			L308.7,66.1z M126.2,179.7l-0.1,6.1c-9.9,17.6-8.8,35.5,1.5,47.7c1.2,1.2,2.7,2,4.4,2.2c3.6,0.5,1.3,2.9-1.2,3.5
			c-4.4-4.3-10.3-1.8-13.1,2.4c-2.1,0.1-4.3,0.3-6.9,1.3c-0.4-2,2.2-5.8,5.1-7c-8.5-16-8.9-39.6,2.7-55.7L126.2,179.7z M167.6,203.6
			c-6.3,15.6-18.7,28.5-25.6,37.2c-2.3,2.9-6.7,5.5-10,6.5c-0.1-0.6-0.1-3.4-0.5-5.2c5.6-1.6,10.2-7.2,7.7-11.5
			c-3,0.4-5.9,0.8-8.9,0.2C141.6,220.1,153.3,210.8,167.6,203.6L167.6,203.6z M128.1,241.6l0.8,9.2c-1.5,2-4.1,2.9-6.6,1.1
			c-0.5-2.9-0.7-6-0.7-9.5C123.3,240.1,126.8,240.1,128.1,241.6z M118.4,244.9c-0.2,1.7-0.2,2.8,0.2,4.6c-3.7,0.4-7.3,0.8-9.8,2.8
			l-55.7,43.6l1.1,20.9l20.5,1.5l44-53.5c2.5-0.1,3.8-0.4,5.9-0.7l-46.6,60L49,321.9L47,292.1l62.7-45.4
			C111.9,245.5,115.3,244.9,118.4,244.9L118.4,244.9z M183.7,244.9l8.1,0l-0.2,7.1c-19,12.9-35.9,12.9-54.8,4.5l-1.1-0.5
			c-3.2,3.6-10.6,6.3-16.5,4.2c-3.5-1.3-6.4-3.2-8.2-6c2.2-1.6,4.7-2,7.2-2.1c4.6,6.5,13,4.1,14.2-1.9c4.4-0.8,7.6-2.1,10.2-3.2
			C153.3,252,168.1,254.5,183.7,244.9L183.7,244.9z"/>
	</g>
</g>
</svg>
