<?xml version="1.0" encoding="utf-8"?>
<!-- Generator: Adobe Illustrator 25.4.1, SVG Export Plug-In . SVG Version: 6.00 Build 0)  -->
<svg version="1.0"
	 id="svg2" xmlns:cc="http://creativecommons.org/ns#" xmlns:dc="http://purl.org/dc/elements/1.1/" xmlns:inkscape="http://www.inkscape.org/namespaces/inkscape" xmlns:rdf="http://www.w3.org/1999/02/22-rdf-syntax-ns#" xmlns:sodipodi="http://sodipodi.sourceforge.net/DTD/sodipodi-0.dtd" xmlns:svg="http://www.w3.org/2000/svg"
	 xmlns="http://www.w3.org/2000/svg" xmlns:xlink="http://www.w3.org/1999/xlink" x="0px" y="0px" viewBox="0 0 1200 1200"
	 style="enable-background:new 0 0 1200 1200;" xml:space="preserve"
	 >
<style type="text/css">
	.st0{fill-rule:evenodd;clip-rule:evenodd;fill:#FFFFFF;}
	.st1{fill-rule:evenodd;clip-rule:evenodd;}
</style>
<sodipodi:namedview  bordercolor="#666666" borderlayer="true" borderopacity="1.0" id="base" inkscape:current-layer="layer1" inkscape:cx="549.75972" inkscape:cy="592.84839" inkscape:document-units="px" inkscape:pageopacity="0.0" inkscape:pageshadow="2" inkscape:showpageshadow="false" inkscape:window-height="1027" inkscape:window-maximized="1" inkscape:window-width="1920" inkscape:window-x="-5" inkscape:window-y="-5" inkscape:zoom="0.49497475" pagecolor="#ffffff" showgrid="false" units="px">
	</sodipodi:namedview>
<g id="layer1" transform="translate(0,-52.3622)" inkscape:groupmode="layer" inkscape:label="Dawnstar">
	
		<path id="path4159-4" inkscape:connector-curvature="0" sodipodi:nodetypes="cccccccccccccccccccccccccccsccccccccccccccccccccccscccccccccccccccccsccscccccccccccccc" class="st0" d="
		M599.3,52.4l-89.6,373.5l16.3,23l-49.9,68.7l33.3,33.3c1.4-1.4,2.8-2.5,4.6-3.9c-1.4,1.4-3.2,2.5-4.6,3.9l0,0
		c-2.1,1.8-3.9,3.5-6,5.3l0,0c-4.6,4.6-8.8,9.9-13.1,15.2c-1.4,1.8-2.5,3.5-3.9,5.3c0.4-0.4,0.7-0.7,0.7-1.4
		c1.1-1.4,2.1-2.8,2.8-4.2c1.1-1.4,2.1-2.8,3.2-4.2c0.4-0.4,0.7-0.7,0.7-1.1l0,0c1.1-1.4,2.1-2.5,3.2-3.9l-33.3-33.3L395,578.4
		l-23-16.3L0,651.7l373.5,89.6l23-16.3l68.7,49.9l33.3-33.3c1.8,2.1,3.5,3.9,5.3,6c4.6,4.6,9.9,8.8,15.2,13.1
		c1.8,1.4,3.5,2.5,5.3,3.9c-0.4-0.4-0.7-0.7-1.4-0.7c-1.4-1.1-2.8-2.1-4.2-2.8c-1.4-1.1-2.8-2.1-4.2-3.2c-0.4-0.4-0.7-0.7-1.1-0.7
		l0,0c-1.4-1.1-2.5-2.1-3.9-3.2l-33.3,33.3l49.9,68.7l-16.3,23l89.6,372l89.6-373.5l-16.3-23l49.9-68.7l-33.3-33.3
		c-1.4,1.4-2.8,2.5-4.6,3.9c1.4-1.4,3.2-2.5,4.6-3.9l0,0c2.1-1.8,3.9-3.5,6-5.3c4.6-4.6,8.8-9.9,13.1-15.2c1.4-1.8,2.5-3.5,3.9-5.3
		c-0.4,0.4-0.7,0.7-0.7,1.4c-1.1,1.4-2.1,2.8-2.8,4.2c-1.1,1.4-2.1,2.8-3.2,4.2c-0.4,0.4-0.7,0.7-0.7,1.1l0,0
		c-1.1,1.4-2.1,2.5-3.2,3.9l33.3,33.3l68.7-49.9l23,16.3l373.5-89.6l-373.5-89.6l-23,16.3l-68.7-49.9l-33.3,33.3
		c1.4,1.4,2.5,2.8,3.9,4.6c-1.4-1.4-2.5-3.2-3.9-4.6l0,0c-1.8-2.1-3.5-3.9-5.3-6l0,0c-4.6-4.6-9.9-8.8-15.2-13.1
		c-1.8-1.4-3.5-2.5-5.3-3.9c0.4,0.4,0.7,0.7,1.4,0.7c1.4,1.1,2.8,2.1,4.2,2.8c1.4,1.1,2.8,2.1,4.2,3.2c0.4,0.4,0.7,0.7,1.1,0.7l0,0
		c1.4,1.1,2.5,2.1,3.9,3.2l33.3-33.3l-51.3-67.6l16.3-23L599.3,52.4L599.3,52.4z M494.5,737c1.4,1.4,2.5,3.2,3.9,4.6l0,0
		C497,739.8,495.9,738.4,494.5,737L494.5,737z"/>
	<path id="path4159" inkscape:connector-curvature="0" class="st1" d="M599.3,52.4l-89.6,373.5l16.3,23l-49.9,68.7l33.3,33.3
		c1.4-1.4,2.8-2.5,4.6-3.9c-1.4,1.4-3.2,2.5-4.6,3.9l0,0c-2.1,1.8-3.9,3.5-6,5.3l0,0c-4.6,4.6-8.8,9.9-13.1,15.2
		c-1.4,1.8-2.5,3.5-3.9,5.3c0.4-0.4,0.7-0.7,0.7-1.4c1.1-1.4,2.1-2.8,2.8-4.2c1.1-1.4,2.1-2.8,3.2-4.2c0.4-0.4,0.7-0.7,0.7-1.1l0,0
		c1.1-1.4,2.1-2.5,3.2-3.9l-33.3-33.3L395,578.4l-23-16.3L0,651.7l373.5,89.6l23-16.3l68.7,49.9l33.3-33.3c1.8,2.1,3.5,3.9,5.3,6
		c4.6,4.6,9.9,8.8,15.2,13.1c1.8,1.4,3.5,2.5,5.3,3.9c-0.4-0.4-0.7-0.7-1.4-0.7c-1.4-1.1-2.8-2.1-4.2-2.8c-1.4-1.1-2.8-2.1-4.2-3.2
		c-0.4-0.4-0.7-0.7-1.1-0.7l0,0c-1.4-1.1-2.5-2.1-3.9-3.2l-33.3,33.3l49.9,68.7l-16.3,23l89.6,372l89.6-373.5l-16.3-23l49.9-68.7
		l-33.3-33.3c-1.4,1.4-2.8,2.5-4.6,3.9c1.4-1.4,3.2-2.5,4.6-3.9l0,0c2.1-1.8,3.9-3.5,6-5.3c4.6-4.6,8.8-9.9,13.1-15.2
		c1.4-1.8,2.5-3.5,3.9-5.3c-0.4,0.4-0.7,0.7-0.7,1.4c-1.1,1.4-2.1,2.8-2.8,4.2c-1.1,1.4-2.1,2.8-3.2,4.2c-0.4,0.4-0.7,0.7-0.7,1.1
		l0,0c-1.1,1.4-2.1,2.5-3.2,3.9l33.3,33.3l68.7-49.9l23,16.3l373.5-89.6l-373.5-89.6l-23,16.3l-68.7-49.9l-33.3,33.3
		c1.4,1.4,2.5,2.8,3.9,4.6c-1.4-1.4-2.5-3.2-3.9-4.6l0,0c-1.8-2.1-3.5-3.9-5.3-6l0,0c-4.6-4.6-9.9-8.8-15.2-13.1
		c-1.8-1.4-3.5-2.5-5.3-3.9c0.4,0.4,0.7,0.7,1.4,0.7c1.4,1.1,2.8,2.1,4.2,2.8c1.4,1.1,2.8,2.1,4.2,3.2c0.4,0.4,0.7,0.7,1.1,0.7l0,0
		c1.4,1.1,2.5,2.1,3.9,3.2l33.3-33.3l-51.3-67.6l16.3-23L599.3,52.4L599.3,52.4z M599.3,127.1l70.1,292.7l-8.8,12.4l0,0l-11.3,15.6
		l-6,8.5l0,0l-42.5,59.8c-0.4,0-1.1,0-1.4,0c-0.4,0-1.1,0-1.4,0l0,0c-1.8,0-3.2,0-5,0c1.8,0,3.2,0,5,0l-36.5-51l6.7-9.6l30.8,43.5
		l37.2-52l6-8.5l0,0l11.3-15.6l4.6-6.4l-59.1-246.4l-59.1,246.4l4.6,6.4l5,7.1l-6.7,9.6l-5-7.1l0,0l-8.8-12.4L599.3,127.1
		L599.3,127.1z M599.3,241.1l38.2,159.6L599.3,348l-38.2,52.7C561.1,400.7,599.3,241.1,599.3,241.1z M599.3,379.1l37.2,51l-6,8.5
		l-30.8-43.2l-37.5,52l-6.7,9.6l-38.6,53.1l21.2,21.2l0,0l5,5l-12,6.7l-5-5l0,0l-24.4-24.4l47.4-65.5l6.7-9.2L599.3,379.1
		L599.3,379.1z M655.9,456.6l41.4,57l-24.4,24.4l0,0l-5.3,5.3l-5.3,5.3l-6,6L651,560l-18.1,18.1l20.2,20.2l20.2,20.2l17.3-17.3
		l6,12.4l-14.2,14.2l-9.2,9.2l-9.2-9.2l-20.2-20.2l0,0l-20.2-20.2l-9.2-9.2l9.2-9.2l12-12l8.5-8.5l6.4-6.4l5.7-5.7l0,0l5.7-5.7
		l21.2-21.2l-32.6-44.6L655.9,456.6L655.9,456.6z M592.9,516.5c-1.8,0-3.5,0.4-5.3,0.4h0.4l0,0C589.7,516.8,591.5,516.8,592.9,516.5
		L592.9,516.5z M599.3,531.3c13.1,0,26.2,2.5,38.6,6.7l-6.7,6.7c-9.9-3.2-20.2-4.6-30.4-5c-15.6-0.4-31.2,2.8-45.7,9.2l-12,6
		c-8.5,5-15.9,10.6-23,17.3l26.2,26.2l20.2-20.2L549,561.1l12.4-6l14.2,14.2l9.2,9.2l-9.2,9.2l-20.2,20.2l0,0L535.2,628l-9.2,9.2
		l-9.2-9.2l-12-12l-8.5-8.5l-6.4-6.4l-5.7-5.7l0,0l-5.7-5.7l-21.2-21.2l-44.6,32.6l-8.8-6l57-41.4l24.4,24.4l0,0l5.3,5.3l5.3,5.3
		l6,6l5.3,5.3l18.1,18.1l20.2-20.2l-26.2-26.2l0,0c-3.9,4.2-7.8,8.5-11,13.5l-6-6c3.5-4.6,7.1-8.8,11.3-13.1l0,0
		c6.7-6.7,14.5-12.7,22.7-17.7l12-6.4C565,535.2,581.9,531.3,599.3,531.3L599.3,531.3z M737.7,554l65.5,47.4l9.2,6.7l59.5,43.2
		l-51,37.2l-8.5-6l43.2-30.8l-52-37.2l-9.6-6.7l-53.5-38.6l-21.2,21.2l0,0l-5,5l-6.7-11.7l5-5l0,0L737.7,554L737.7,554z
		 M671.5,555.4c4.6,3.5,8.8,7.1,13.1,11.3l0,0c6.7,6.7,12.7,14.5,17.7,22.7l6.4,12c7.4,15.9,11.3,32.9,11.3,50.3
		c0,13.1-2.5,26.2-6.7,38.6l-6.7-6.7c3.2-9.9,4.6-20.2,5-30.4c0.4-15.6-2.8-31.2-9.2-45.7l-6-12c-5-8.5-10.6-15.9-17.3-23l0,0
		c-4.2-3.9-8.5-7.8-13.1-11L671.5,555.4L671.5,555.4z M367.8,581.6l12.4,8.8l0,0l15.6,11.3l8.5,6l0,0l59.8,42.5c0,0.4,0,1.1,0,1.4
		c0,0.4,0,1.1,0,1.4l0,0c0,1.8,0,3.2,0,5c0-1.8,0-3.2,0-5l-51,36.5l-9.6-6.7l43.5-30.8l-52-37.2l-8.5-6l0,0L371,597.5l-6.4-4.6
		L118.2,652l246.4,59.1l6.4-4.6l7.1-5l9.6,6.7l-7.1,5l0,0l-12.4,8.8L75.4,652l0,0L367.8,581.6L367.8,581.6z M831.2,581.6l292.7,70.1
		l-292.7,70.1l-12.4-8.8l0,0l-15.6-11.3l-8.5-6l0,0l-59.8-42.5c0-0.4,0-1.1,0-1.4c0-0.4,0-1.1,0-1.4l0,0c0-1.8,0-3.2,0-5
		c0,1.8,0,3.2,0,5l51-36.5l9.6,6.7l-43.5,30.8l52,37.2l8.5,6l0,0l15.6,11.3l6.4,4.6l246.4-59.1l-246.4-58.8l-6.4,4.6l-7.1,5
		l-9.6-6.7l7.1-5l0,0L831.2,581.6L831.2,581.6z M599.3,592.9l29.4,29.4l0,0l29.4,29.4l-29.4,29.4l0,0l-29.4,29.4l-29.4-29.4l0,0
		l-29.4-29.4l29.4-29.4l0,0L599.3,592.9L599.3,592.9z M485.7,612.8l6.7,6.7c-3.2,9.9-4.6,20.2-5,30.4c-0.4,15.6,2.8,31.2,9.2,45.7
		l6,12c5,8.5,10.6,15.9,17.3,23l26.2-26.2L526,684.3l-17.3,17.3l-6-12.4l14.2-14.2l9.2-9.2l9.2,9.2l20.2,20.2l20.2,20.2l9.2,9.2
		l-9.2,9.2l-12,12l-8.5,8.5l-6.4,6.4l-5.7,5.7l0,0l-5.7,5.7l-21.2,21.2l32.6,44.6l-6,8.8l-41.4-57l24.4-24.4l0,0l5.3-5.3l5.3-5.3
		l6-6l5.3-5.3l18.1-18.1l-20.2-20.2l-26.2,26.2c4.2,3.9,8.5,7.8,13.5,11l-6,6c-4.6-3.5-8.8-7.1-13.1-11.3
		c-6.7-6.7-12.7-14.5-17.7-22.7l-6.4-12c-7.4-15.9-11.3-32.9-11.3-50.3C479.3,638.6,481.4,625.5,485.7,612.8z M348.3,613.5
		l-52.7,38.2l52.7,38.2l-159.6-38.2L348.3,613.5z M850.6,613.5l159.6,38.2l-159.6,38.2l52.7-38.2L850.6,613.5z M377.7,614.5l8.5,6
		L343,651.3l52,37.2l9.6,6.7l53.5,38.6l21.2-21.2l0,0l5-5l6.7,11.7l-5,5l0,0l-24.4,24.4l-65.5-47.4l-9.2-6.7l-59.5-43.2L377.7,614.5
		L377.7,614.5z M734.2,640v0.4l0,0c0,1.8,0.4,3.2,0.4,5C734.5,643.6,734.2,641.8,734.2,640L734.2,640z M464.4,658.1
		c0,1.8,0.4,3.5,0.4,5.3V663l0,0C464.4,661.2,464.4,659.5,464.4,658.1z M672.6,665.9l9.2,9.2l12,12l8.5,8.5l6.4,6.4l5.7,5.7l0,0
		l5.7,5.7l21.2,21.2l44.6-32.6l8.8,6l-57,41.4L713.3,725l0,0l-5.3-5.3l-5.3-5.3l-6-6l-5.3-5.3L673.3,685l-20.2,20.2l26.2,26.2
		c3.9-4.2,7.8-8.5,11-13.5l6,6c-3.5,4.6-7.1,8.8-11.3,13.1c-6.7,6.7-14.5,12.7-22.7,17.7l-12,6.4c-15.9,7.4-32.9,11.3-50.3,11.3
		c-13.1,0-26.2-2.5-38.6-6.7l6.7-6.7c9.9,3.2,20.2,4.6,30.4,5c15.6,0.4,31.2-2.8,45.7-9.2l12-6c8.5-5,15.9-10.6,23-17.3l-26.2-26.2
		l-20.2,20.2l17.3,17.3l-13.1,5.7L623,734.2l-9.2-9.2l9.2-9.2l20.2-20.2l20.2-20.2L672.6,665.9L672.6,665.9z M494.5,737
		c1.4,1.4,2.5,3.2,3.9,4.6l0,0C497,739.8,495.9,738.4,494.5,737z M667.6,760.4l5,5l0,0l24.4,24.4l-47.4,65.5l-6.7,9.2l-43.2,59.5
		l-37.2-51l6-8.5l30.8,43.2l37.2-52l6.7-9.6l38.6-53.5l-21.2-21.2l0,0l-5-5L667.6,760.4L667.6,760.4z M611,786.2h-0.4l0,0
		c-1.8,0-3.2,0.4-5,0.4C607.4,786.6,609.2,786.6,611,786.2L611,786.2z M605.7,786.9c-1.8,0-3.2,0-5,0l36.5,51l-6.7,9.6l-30.8-43.5
		l-37.2,52l-6,8.5l0,0L545.1,880l-4.6,6.4l59.1,246.4l59.1-246.4l-4.6-6.4l-5-7.1l6.7-9.6l5,7.1l0,0l8.8,12.4l-70.1,292.7
		l-70.1-292.7l8.8-12.4l0,0l11.3-15.6l6-8.5l0,0l42.5-59.8c0.4,0,1.1,0,1.4,0c0.4,0,1.1,0,1.4,0l0,0
		C602.5,786.9,604.2,786.9,605.7,786.9L605.7,786.9z M561.1,902.7l38.2,52.7l38.2-52.7l-38.2,159.6L561.1,902.7z"/>
</g>
</svg>
