<?xml version="1.0" encoding="utf-8"?>
<!-- Generator: Adobe Illustrator 25.4.1, SVG Export Plug-In . SVG Version: 6.00 Build 0)  -->
<svg version="1.1"
	 id="svg4145" inkscape:export-filename="C:\Users\user1\OneDrive\Nexus Files\Hold Emblems\Product\v1.0 - Artist&apos;s Resource - Eastmarch.png" xmlns:cc="http://creativecommons.org/ns#" xmlns:dc="http://purl.org/dc/elements/1.1/" xmlns:inkscape="http://www.inkscape.org/namespaces/inkscape" xmlns:rdf="http://www.w3.org/1999/02/22-rdf-syntax-ns#" xmlns:sodipodi="http://sodipodi.sourceforge.net/DTD/sodipodi-0.dtd" xmlns:svg="http://www.w3.org/2000/svg"
	 xmlns="http://www.w3.org/2000/svg" xmlns:xlink="http://www.w3.org/1999/xlink" x="0px" y="0px" viewBox="0 0 1200 865"
	 style="enable-background:new 0 0 1200 865;" xml:space="preserve">
<style type="text/css">
	.st0{fill-rule:evenodd;clip-rule:evenodd;fill:#FFFFFF;stroke:#FFFFFF;stroke-width:2.6276;}
	.st1{fill-rule:evenodd;clip-rule:evenodd;stroke:#000000;stroke-width:2.6276;}
</style>
<sodipodi:namedview  bordercolor="#666666" borderlayer="true" borderopacity="1.0" id="base" inkscape:current-layer="layer1" inkscape:cx="503.45643" inkscape:cy="308.45194" inkscape:document-units="px" inkscape:pageopacity="0.0" inkscape:pageshadow="2" inkscape:showpageshadow="false" inkscape:window-height="1027" inkscape:window-maximized="1" inkscape:window-width="1920" inkscape:window-x="-5" inkscape:window-y="-5" inkscape:zoom="0.7" pagecolor="#ffffff" showgrid="false" units="px">
	</sodipodi:namedview>
<g id="layer1" transform="translate(0,-187.36216)" inkscape:groupmode="layer" inkscape:label="Windhelm">
	<path id="path4150-6" inkscape:connector-curvature="0" sodipodi:nodetypes="sccccccccccccccccccccccccccsscccs" class="st0" d="
		M943.2,188.9c-78.6-2.8-164.6,18.6-302.7,91.4c-32.7-31.2-70.4-61.1-145.1-42.1c-31.4,15.9-44.1,36-46.3,56.9
		c-24.7,19.7-57.6,36.1-81.1,54.9c-10.7,36.6-21.4,73.3-36.8,105l-25.2,7.5c-44.1,40.3-90.5,78.7-122.7,129.1l-15.6,13.9
		c-4,17.4-10.8,35.6-21.9,54.8c-16,13-29.1,26.6-78.5,29.9C49,684.2,30.9,683.2,13,686c-17.8,21.5-15.7,43.4,9.1,65.5
		c7.4,34.1,6.7,71.7,82.2,77.7c11.6,24.3,23.3,44.8,35.5,51.8c-2.8-16.1-4.7-31.5-3.2-44.5c34.7-2.1,72.5-1.9,97.5,25.4
		c15.9,14.6,16.7,46-3.5,98.5c-18.1,2.7-33,1.4-48.8,1.2c5.4,5,20.8,15.1,40.1,21.4l-9.4,21.4c13.2,22.3,48.9,16,83.9,2.4
		c34.6-11.5,79.9-45.5,125.8-83.7c44.7,0.9,80.1-6.8,91.5,43.1c18.4-9.8,36.2-21,55.5-27.8c8.7,5.5,18,13.6,24.4,21.8
		c-4.7,27.2-5,58.3-6,90.3c134.2-44.4,220.6-208.2,275.9-349.5c25.5-65.2,50.7-125.7,72.2-172.2c55.6-120,156.3-222.6,260.1-279.5
		c-86.6-12.4-177.4-11-272.3,4.1c28.5-27.1,46.4-47.4,82.8-59.6C981.1,192,969.7,189.9,943.2,188.9L943.2,188.9z"/>
	
		<path id="path4150" inkscape:connector-curvature="0" sodipodi:nodetypes="sccccccccccccccccccccccccccsscccscccsscscccccccccccccccccccsscscssssccccccccccccccccccccccc" class="st1" d="
		M943.2,188.9c-78.6-2.8-164.6,18.6-302.7,91.4c-32.7-31.2-70.4-61.1-145.1-42.1c-31.4,15.9-44.1,36-46.3,56.9
		c-24.7,19.7-57.6,36.1-81.1,54.9c-10.7,36.6-21.4,73.3-36.8,105l-25.2,7.5c-44.1,40.3-90.5,78.7-122.7,129.1l-15.6,13.9
		c-4,17.4-10.8,35.6-21.9,54.8c-16,13-29.1,26.6-78.5,29.9C49,684.2,30.9,683.2,13,686c-17.8,21.5-15.7,43.4,9.1,65.5
		c7.4,34.1,6.7,71.7,82.2,77.7c11.6,24.3,23.3,44.8,35.5,51.8c-2.8-16.1-4.7-31.5-3.2-44.5c34.7-2.1,72.5-1.9,97.5,25.4
		c15.9,14.6,16.7,46-3.5,98.5c-18.1,2.7-33,1.4-48.8,1.2c5.4,5,20.8,15.1,40.1,21.4l-9.4,21.4c13.2,22.3,48.9,16,83.9,2.4
		c34.7-11.5,79.9-45.5,125.8-83.7c44.7,0.9,80.1-6.8,91.5,43.1c18.4-9.8,36.2-21,55.5-27.8c8.7,5.5,18,13.6,24.4,21.8
		c-4.7,27.2-5,58.3-6,90.3c134.2-44.4,220.6-208.2,275.9-349.5c25.5-65.2,50.7-125.7,72.2-172.2c55.6-120,156.3-222.6,260.1-279.5
		c-86.6-12.4-177.4-11-272.3,4.1c28.5-27.1,46.4-47.4,82.8-59.6C981.1,192,969.7,189.9,943.2,188.9L943.2,188.9z M943.9,202.7
		c-34,22.8-69.8,50.2-98.2,74.9c95.1-17.7,186.3-32.4,277.9-16.9c-100.4,52.2-226.1,219.3-280.7,367.6
		c-29.1,79.1-52.2,146.7-81.7,205.4c-31.8,63.1-77,113-121.1,167.4c0.9-23.3,0.9-55.6-0.4-89.8c-0.6-16,8.3-36.9,12.6-56.2
		c37-30.5,73.7-63.5,93.1-107c-5.4-50.7-19.5-100.3-36.5-149.2l-7.2-54.7l-23.7,51.4c6.3,3,13.4,4.4,17.3,13
		c16.6,62.1,45.9,175.7-58.8,233.5l-52.1,34c-57.3,33.5-122.1,10.3-169.1,12.3c-18.1,39.1-54.3,64.4-106.7,72.6
		c-8.4-0.7-12.8-4.9-17.6-8.9l19.2-54c-31.6-23.2-62.7-38.5-92.2-63.1c-71.4-3.7-132.4-12.6-155.5-38c-9.8-20.1-11.3-40.2-10-60
		c7,4.6,16.9,5.5,27.2,5.9c6.7-17.7,3.1-26.2,1.6-36.2c33-6.6,59.7-24.2,82.6-44.3c29.5-3.8,59.7-7.4,85.8-2.5
		c6.2,8.5,8.2,25.9,9.5,46.1c9.4,141.9,211.6,143,204.5,20.5c-5.7-98.2-136.7-90.7-137.8-17.4c5.1,71.2,98.5,63.8,101.9,11.2
		c0.9-14.2-16.1-25.9-29.4-34.5c39,80.7-61,69.7-55.1,21.4c7.7-63.5,115.2-45.3,106.9,24.3c-5.6,47.4-41.6,66.7-77.9,65.5
		c-49.4-1.7-97.2-44.8-95.5-90.1c1.6-41.9,50.7-77.1,65.1-82.5c-26.5-11.9-55.4-23.4-95.8-30.7c-8.2,58.9-48.4,63.7-56.6,16.8
		l13.7-30.8c39.9-58.9,107.6-94.8,150.1-94.6c5.4-32.9,16.7-68.4,39-106.8c20.2-9.4,42.6-15.8,66.1-16.8
		c-0.4,12.8,14.4,24.7,23.5,35.7l25.5-12.9l-27.5-60.1c-3.9-71.1,47.1-71.3,75-63c-63.6,26-24.1,82.3-14.7,113.7l16.9-10
		c-15.8-34.2-41.4-68.1,16.8-97.2c135.8,56.1,59.8,196.3,45.1,189.1l33.8,14.3C686,450.1,691,368,659.7,306.3
		C740.9,253.7,829.9,200.3,943.9,202.7L943.9,202.7z M266.5,622.8c8.5,0,15.3,5.7,15.3,12.8c0,7.1-6.9,12.8-15.3,12.8
		c-8.5,0-15.3-5.7-15.3-12.8C251.2,628.5,258,622.8,266.5,622.8z"/>
</g>
</svg>
