<?xml version="1.0" encoding="utf-8"?>
<!-- Generator: Adobe Illustrator 25.4.1, SVG Export Plug-In . SVG Version: 6.00 Build 0)  -->
<svg version="1.1"
	 id="svg4185" inkscape:export-filename="C:\Users\user1\OneDrive\Nexus Files\Artist&apos;s Resource\Hold Capital Symbol Vectors\Files\PNG\v1.0 - Artist&apos;s Resource - Solitude.png" xmlns:cc="http://creativecommons.org/ns#" xmlns:dc="http://purl.org/dc/elements/1.1/" xmlns:inkscape="http://www.inkscape.org/namespaces/inkscape" xmlns:rdf="http://www.w3.org/1999/02/22-rdf-syntax-ns#" xmlns:sodipodi="http://sodipodi.sourceforge.net/DTD/sodipodi-0.dtd" xmlns:svg="http://www.w3.org/2000/svg"
	 xmlns="http://www.w3.org/2000/svg" xmlns:xlink="http://www.w3.org/1999/xlink" x="0px" y="0px" viewBox="0 0 1095 1200"
	 style="enable-background:new 0 0 1095 1200;" xml:space="preserve">
<style type="text/css">
	.st0{fill:#FFFFFF;}
</style>
<sodipodi:namedview  bordercolor="#666666" borderlayer="true" borderopacity="1.0" id="base" inkscape:current-layer="layer2" inkscape:cx="152.82145" inkscape:cy="470.26751" inkscape:document-units="px" inkscape:pageopacity="0.0" inkscape:pageshadow="2" inkscape:showpageshadow="false" inkscape:window-height="1027" inkscape:window-maximized="1" inkscape:window-width="1920" inkscape:window-x="-5" inkscape:window-y="-5" inkscape:zoom="0.49497475" pagecolor="#ffffff" showgrid="false" units="px">
	</sodipodi:namedview>
<g id="layer1" transform="translate(0,147.63784)" inkscape:groupmode="layer" inkscape:label="Solitude">
	<path id="path4142-7-9" inkscape:connector-curvature="0" sodipodi:nodetypes="cscccscccccccccscccssccccscc" class="st0" d="
		M183.5-147.6c-31.8,0.3-41.5,35.8-36.3,112.8c4.7,70.7,21.5,213.7,21.5,213.7l0,0C131.5,226,103.5,270,70.3,340.6
		c-76.5,92.6-81.9,213.4-57,336.9C68.5,952.9,129.5,903.9,148,897.1c21.3,36.2,47.4,79.6,79.2,67.2c25,32.8,49.9,52.6,74.5,44.2
		c35.2,42.3,74,58.7,104.9,28.1c64.3-17.5,107.4-40.6,140.8-66.4c33.3,25.8,76.5,48.9,140.8,66.4c30.9,30.6,69.7,14.2,104.9-28.1
		c24.6,8.3,49.5-11.4,74.5-44.2c31.8,12.4,57.9-31,79.2-67.2c18.6,6.7,79.5,55.8,134.8-219.6c24.8-123.5,19.5-244.3-57-336.9
		C991.5,270,963.5,226,926.4,178.9l0,0c0,0,16.8-143,21.5-213.7c8-120.3-20-139.1-112.1-81.4c-30.2,18.9-88.7,59.6-88.7,59.6
		c-70.5-22-105.9-24.6-178.3-29.2h-42.5c-72.5,4.6-107.8,7.3-178.3,29.2c0,0-58.5-40.7-88.7-59.6C226.1-137,201.3-147.8,183.5-147.6
		L183.5-147.6z"/>
	<path id="path4142-7" d="M183.5-147.6c-31.8,0.3-41.5,35.8-36.3,112.8c4.7,70.7,21.5,213.7,21.5,213.7h0
		C131.5,226,103.5,270,70.3,340.6c-76.5,92.6-81.9,213.4-57,336.9C68.5,952.9,129.5,903.9,148,897.1c21.3,36.2,47.4,79.6,79.2,67.2
		c25,32.8,49.9,52.6,74.5,44.2c35.2,42.3,74,58.7,104.9,28.1c64.3-17.5,107.4-40.6,140.8-66.4c33.3,25.8,76.5,48.9,140.8,66.4
		c30.9,30.6,69.7,14.2,104.9-28.1c24.6,8.3,49.5-11.4,74.5-44.2c31.8,12.4,57.9-31,79.2-67.2c18.6,6.7,79.5,55.8,134.8-219.6
		c24.8-123.5,19.5-244.3-57-336.9C991.5,270,963.5,226,926.4,178.9h0c0,0,16.8-143,21.5-213.7c8-120.3-20-139.1-112.1-81.4
		c-30.2,18.9-88.7,59.6-88.7,59.6c-70.5-22-105.9-24.6-178.3-29.2h-42.5c-72.5,4.6-107.8,7.3-178.3,29.2c0,0-58.5-40.7-88.7-59.6
		C226.1-137,201.3-147.8,183.5-147.6z M193.8-109.3c10.8,0.1,30.5,12,64.6,30.6c-86.2-17.5-51.4,23-3,45.5
		C289.8-17.2,349.5-0.6,360,17.3c-47.1,41.8-76.9,108.1-98.8,157.1c-6,14.5-12.1,7.5-17.7-1.1c-35.9-56.1-51.7-119-57-192.3
		C181.3-84.6,178-109.5,193.8-109.3z M901.2-109.3c15.8-0.2,12.5,24.7,7.3,90.2c-5.3,73.4-21.1,136.2-57,192.3
		c-5.5,8.7-11.6,15.6-17.7,1.1c-22-49-51.8-115.3-98.8-157.1c10.5-17.9,70.1-34.5,104.6-50.6c48.3-22.5,83.1-63-3-45.5
		C870.7-97.4,890.4-109.2,901.2-109.3z M210,200.7l29.2,25.7c-42.5,57.3-37.8,110.8-40.3,153.4c29.9,42.3,59.8,88.3,153.4,136.3
		c1.2,3.3,14.7,41.8,7.8,47.3c-36.1-26.5-93.1-51.9-126.9-85.2C135.2,377.4,198.6,215.1,210,200.7z M885,200.7
		c11.3,14.4,74.7,176.7-23.3,277.6c-33.8,33.3-90.8,58.7-126.9,85.2c-7-5.6,6.6-44,7.8-47.3c93.6-48,123.6-94,153.4-136.3
		c-2.5-42.6,2.2-96.1-40.3-153.4L885,200.7z M147,254.9c-0.5,1.9-1,5.9-1.2,11.6l0,0c-1.7,39,5.7,158,57.8,215.8
		c37.7,41.9,128.5,88.2,128.5,88.2c7.5,29.2,4.4,56.1-1.1,82.4c-30.5,17-44.5,39.9-53.9,64.5c-1.5-18.5-7.7-39.7-5.6-58.8
		c3-26.9-3.1-45.3-21.2-10.6c-17.9,32.4-31.3,50.8-36.6-0.1c-5-48.6-8.5-62.4-22.4-37.2c-12.3,22.4-19,16.8-19.3-17.4
		c-0.1-11.7,0.9-24.2,3.2-35.1c9.4-43.9-17-15.4-21.6-4.1c-10.3,25.1-23,15.1-20.4-19.3c1.6-19.5,4.6-36.9,10.3-55.2
		c7.9-32.7-13-17-23.4,7c-7.9,18.4-7.1,30.7-12.2,31l37.6-250.9l-37.6,250.9c-9-49-15.7-107.6-3.6-163
		C113.4,313.3,130.2,284,147,254.9z M948,254.9c16.8,29.1,33.5,58.4,42.4,99.5c12.1,55.4,5.4,114-3.6,163l-37.6-250.9l37.6,250.9
		c-5.1-0.3-4.2-12.6-12.2-31c-10.3-23.9-31.3-39.7-23.4-7c5.7,18.3,8.7,35.7,10.3,55.2c2.6,34.4-10.2,44.5-20.4,19.3
		c-4.6-11.2-31-39.7-21.6,4.1c2.3,10.9,3.3,23.4,3.2,35.1c-0.2,34.3-7,39.8-19.3,17.4c-13.8-25.2-17.4-11.4-22.4,37.2
		c-5.2,50.9-18.7,32.4-36.6,0.1c-18.1-34.7-24.1-16.3-21.2,10.6c2.1,19.1-4,40.3-5.6,58.8c-9.4-24.6-23.4-47.5-53.9-64.5
		c-5.5-26.3-8.5-53.1-1.1-82.4c0,0,90.8-46.3,128.5-88.2c52.1-57.8,59.6-176.8,57.8-215.8l0,0C949,260.8,948.6,256.7,948,254.9z
		 M458.5,255.1c15.1-0.1,31.1,1.1,48.1,3.7c-1.9,58.3-1.9,120.9-16.3,178.4c-47.1-73.6-121.9-87.4-206.7-89.6
		C322.9,294.2,377.1,255.7,458.5,255.1z M636.5,255.1c81.5,0.6,135.6,39.1,174.8,92.5c-84.8,2.2-159.6,16-206.7,89.6
		c-14.4-57.5-14.4-120.2-16.3-178.4C605.4,256.1,621.4,255,636.5,255.1z M334.2,363c9.1-0.1,20,3.3,25.4,4.6
		c-12.2,16.1,1.3,31.9,18.7,33.7c14.8,1.5,29-7.1,29.5-19.5c4.2,2.5,13,6.5,16.8,9.4c1.6,12.3-2.8,19.7-7.5,25.9
		c-31,34.9-80.4,22.5-95.4-14.2c-3.6-12-4.4-31.5,6.5-39.1C330.1,363.2,332.1,363,334.2,363z M760.8,363c2.1,0,4.1,0.2,5.9,0.7
		c11,7.6,10.1,27.1,6.5,39.1c-14.9,36.8-64.3,49.2-95.4,14.2c-4.7-6.2-9.1-13.6-7.5-25.9c3.8-2.9,12.6-6.9,16.8-9.4
		c0.5,12.4,14.8,21,29.5,19.5c17.4-1.8,30.8-17.5,18.7-33.7C740.8,366.2,751.7,362.8,760.8,363z M76.4,368.1
		c0,0-2.5,149.4,35.7,242.3c22.7,55.2,39.8,110,52.8,136.8c6.8,16.1,16.9,38,16.9,38c3.9,7.9-9.9,17.1-17.5,11.2
		c-14.6-39.3-30.6-85.4-42.3-118.1c-36.9-102.9-20-23.9-20.6,3.3c-24.3,11.8-32-59.4-43.5-105.4c-15.3-61.3-16.6-27.6-18.5,9.4
		c-0.3,43.9-0.2,92,17.6,135.9c10.8-23.4,24.4-31.5,37.5-31.3c5.9,0.1,15.5,1.2,21.7,5.3c6.6,18.7,20.4,41.1,14.6,56.5
		c-7.3,0.8-14,1.8-19.2,4.5c-18.2,9.2-20,18.2-16.7,50c1.2,11.6,3.1,19.9,18.9,28.6c9.1,16.3,19,33.8,27,48.6
		c-51.1,36.9-93.8-97.9-112.5-189.9C5.9,582.1,2.7,449.4,76.4,368.1z M1018.6,368.1c73.8,81.4,70.6,214,48,325.6
		c-18.6,92-61.4,226.8-112.5,189.9c8.1-14.8,17.9-32.3,27-48.6c15.8-8.7,17.7-17,18.9-28.6c3.3-31.7,1.5-40.8-16.7-50
		c-5.2-2.6-11.9-3.6-19.2-4.5c-5.8-15.4,8-37.8,14.6-56.5c6.2-4.1,15.8-5.2,21.7-5.3c13.1-0.2,26.7,7.9,37.5,31.3
		c17.7-44,17.8-92.1,17.6-135.9c-1.9-37-3.2-70.7-18.5-9.4c-11.5,46-19.1,117.3-43.5,105.4c-0.6-27.2,16.3-106.2-20.6-3.3
		c-11.7,32.7-27.7,78.8-42.3,118.1c-7.7,5.9-21.4-3.4-17.5-11.2c0,0,10.1-21.9,16.9-38c13-26.8,30.1-81.6,52.8-136.8
		C1021,517.4,1018.6,368.1,1018.6,368.1z M297.6,374.9c4.6,0,8.8,0.5,11.9,3.3c4.6,90.4,99.3,77.6,122.2,38.2l14.3-0.5
		c7.6,8.7,16.9,17.1,19.5,29.2c-3.8,38-7.8,74.3-8.5,121.4c7.7,49.9,6.6,102.2-6.4,170.6c-0.9,41.8-7.9,85.9,13,115
		c-1.5-49.7,61.7-55.5,70.2-17.2c2.8,12.7,2.5,25.3-12.9,36.1c-10.2,7.5-16.7-7.8-13.1-11.2c21.2-9.6,13.2-30.9-2.4-35
		c-17.2-4.6-28,7.3-29.8,18.5c-2.4,15.1,1.3,24.7,17.1,31.9c14.7,6.8,29.4,9.8,42.3,12l-0.2,26.8C453,911.6,413,850,403.3,781.9
		c-5-34.8-12.7-69.8-16.1-100.4c-42.8-52.5-19.5-132.8,33.1-182.1c31-31.1,42.3-53.4-10.1-36.2c-76.2,15.4-142.6,8.4-126.6-87.9
		C288.1,375.6,293,374.9,297.6,374.9z M797.4,374.9c4.6,0,9.5,0.7,14,0.4c15.9,96.2-50.4,103.2-126.6,87.9
		c-52.4-17.1-41.1,5.1-10.1,36.2c52.6,49.3,75.9,129.6,33.1,182.1c-3.4,30.6-11.2,65.6-16.1,100.4C682,850,642,911.6,560.3,914.1
		l-0.2-26.8c12.9-2.2,27.6-5.2,42.3-12c15.8-7.3,19.5-16.8,17.1-31.9c-1.8-11.2-12.6-23-29.8-18.5c-15.6,4.1-23.6,25.4-2.4,35
		c3.6,3.4-2.9,18.7-13.1,11.2c-15.4-10.8-15.7-23.4-12.9-36.1c8.4-38.3,71.6-32.5,70.2,17.2c20.9-29.2,14-73.3,13-115
		c-13-68.4-14.1-120.7-6.4-170.6c-0.7-47.1-4.7-83.4-8.5-121.4c2.6-12.1,11.9-20.6,19.5-29.2l14.3,0.5
		c23,39.4,117.6,52.2,122.2-38.2C788.7,375.4,792.9,374.8,797.4,374.9z M169.2,710c9.6-0.3,21.8,15,36.5,44.2
		c18.8,38.3,38.5,76.1,57.1,114.5c-6.4,1.8-11.4,4.5-16,7.4L232,844.3l-25.2-49c-18.6-25.9-31.3-50-43.8-82.6
		C164.9,710.9,167,710,169.2,710z M925.8,710c2.2,0.1,4.3,1,6.3,2.7c-12.5,32.6-25.2,56.8-43.8,82.6l-25.2,49l-14.9,31.8
		c-4.7-2.9-9.6-5.6-16-7.4c18.6-38.4,38.3-76.2,57.1-114.5C904,725,916.1,709.7,925.8,710z M126.8,767.2c3.1,0.1,6.2,0.8,9.5,2
		c-0.4,30,12.9,60.9,26.2,88.6c16.5,34.4,41.5,64.9,58.4,97.9c-28.5,5.4-52.3-44.5-70.8-75c-24.7-46-43.2-89-37.5-108.5
		C116.9,768.5,121.7,767,126.8,767.2z M968.2,767.2c5.1-0.2,9.9,1.4,14.1,4.9c5.8,19.5-12.8,62.5-37.5,108.5
		c-18.5,30.5-42.2,80.4-70.8,75c16.9-32.9,41.9-63.5,58.4-97.9c13.3-27.7,26.7-58.6,26.2-88.6C962,767.9,965.2,767.3,968.2,767.2z
		 M256.2,796.3c13.8-0.4,28.2,14.3,39.9,32c15.6,29.2,30.1,56.5,47,85.7l-17.5,16.4c-10.3-16.6-18-32.1-26.6-49.3
		c-5.9-11.2-16.2-25.6-27.5-30.5c-12.7-16.3-20.9-33.1-26.7-50.1C248.6,797.7,252.4,796.4,256.2,796.3z M838.8,796.3
		c3.9,0.1,7.7,1.4,11.4,4.2c-5.8,17-14,33.8-26.7,50.1c-11.4,5-21.7,19.3-27.5,30.5c-8.5,17.1-16.3,32.6-26.6,49.3L751.9,914
		c16.8-29.2,31.4-56.5,47-85.7C810.6,810.6,825,795.9,838.8,796.3z M196.3,803c15.1,11.3,22.7,42.3,18.7,47.3
		c-8.2,7.1-22.3,13.8-33.4,18.2c-13.4-11.7-19-31.3-18.2-50.7C169,814.6,189.1,803.1,196.3,803z M898.7,803
		c7.2,0.2,27.3,11.7,33,14.8c0.8,19.4-4.8,39-18.2,50.7c-11.1-4.3-25.2-11-33.4-18.2C876,845.3,883.6,814.3,898.7,803z M338.9,847
		c8.6,0.3,21,11.6,34.4,25.6c29.1,30.5,32.9,61.3,34,101.5l-14.9-8.9c0.1-50.9-19.2-64-48.1-74.3l-16.2-30.8
		C329.9,850.6,333.7,846.9,338.9,847z M756.1,847c5.2-0.2,8.9,3.6,10.7,13.1l-16.2,30.8c-28.9,10.2-48.1,23.3-48.1,74.3l-14.9,8.9
		c1.1-40.1,5-71,34-101.5C735.1,858.6,747.5,847.3,756.1,847z M208.7,870.8c2.5,0,5.3,0.8,8.3,2.9c6.6,40.8,32.4,66.6,45.1,81.1
		c17.3,18.5,25,33,32.7,45.3c-35.5,4.1-82.2-72.2-98.7-120.1C196,878.5,201.2,870.9,208.7,870.8z M886.3,870.8
		c7.6,0.1,12.7,7.8,12.7,9.3c-16.5,47.9-63.2,124.2-98.7,120.1c7.7-12.4,15.4-26.8,32.7-45.3c12.6-14.5,38.5-40.3,45.1-81.1
		C880.9,871.5,883.7,870.8,886.3,870.8z M277,873.3c12.3,10.2,19.3,23,19.1,38.7L264,931.6c-8.8-4.6-23.9-20.8-20.9-40.6
		C251.8,884.9,259.7,878.7,277,873.3z M818,873.3c17.3,5.4,25.2,11.6,33.9,17.7c3,19.8-12.1,35.9-20.9,40.6L799,912.1
		C798.7,896.3,805.8,883.6,818,873.3z M444.5,906c28.5,16,59.4,31.1,91.5,45.8l0.2,10.6c-38.9,23.3-76.3,47.9-128.8,58.2
		c-11.5-7.1-28.1-16.3-44.3-37c2.9-8.2,8.3-13,17-16c11.3,14.2,23.6,19,38.2,24.3c29.1,7.9,40.1-32.1-0.9-51.4
		c-0.9-7.3-1.9-14.6-3-21.9L444.5,906z M650.5,906l30.2,12.6c-1.1,7.3-2.1,14.6-3,21.9c-41,19.3-29.9,59.4-0.9,51.4
		c14.7-5.3,26.9-10.1,38.2-24.3c8.7,3,14.1,7.8,17,16c-16.3,20.7-32.9,29.9-44.3,37c-52.5-10.3-89.9-34.9-128.8-58.2l0.2-10.6
		C591.2,937.1,622.1,922,650.5,906z M361.3,921.7c15,0.6,17.9,20.8,15.7,30.9c-9.2,11.7-21,23.1-35.4,28.3
		c-16.5-12.3-21.4-22.7-17.3-31.6c7.7-11.3,17.5-18.2,27.4-25.7C355.3,922.2,358.5,921.6,361.3,921.7z M733.7,921.7
		c2.8-0.1,6,0.4,9.6,1.8c9.9,7.6,19.7,14.4,27.4,25.7c4.1,8.9-0.9,19.3-17.3,31.6c-14.4-5.2-26.3-16.6-35.4-28.3
		C715.8,942.5,718.7,922.4,733.7,921.7z M292.7,933.1l14.3,16.9c-3.6,4.6-5.8,10.8,0.2,20.9c6.8,11.5,20,23.6,27.5,34.5
		c20.8-2,41,7.7,61,22.5c-41.3,41.6-90.2-30.5-118-83.5L292.7,933.1z M802.3,933.1l15,11.3c-27.7,53.1-76.6,125.2-118,83.5
		c19.9-14.8,40.1-24.5,61-22.5c7.5-10.9,20.7-23,27.5-34.5c6-10.2,3.8-16.3,0.2-20.9L802.3,933.1z"/>
</g>
</svg>
