<?xml version="1.0" encoding="utf-8"?>
<!-- Generator: Adobe Illustrator 25.4.1, SVG Export Plug-In . SVG Version: 6.00 Build 0)  -->
<svg version="1.0"
	 id="svg2" xmlns:cc="http://creativecommons.org/ns#" xmlns:dc="http://purl.org/dc/elements/1.1/" xmlns:inkscape="http://www.inkscape.org/namespaces/inkscape" xmlns:rdf="http://www.w3.org/1999/02/22-rdf-syntax-ns#" xmlns:sodipodi="http://sodipodi.sourceforge.net/DTD/sodipodi-0.dtd" xmlns:svg="http://www.w3.org/2000/svg"
	 xmlns="http://www.w3.org/2000/svg" xmlns:xlink="http://www.w3.org/1999/xlink" x="0px" y="0px" viewBox="0 0 595.3 841.9"
	 style="enable-background:new 0 0 595.3 841.9;" xml:space="preserve">
<style type="text/css">
	.st0{fill:#FFFFFF;}
</style>
<sodipodi:namedview  bordercolor="#666666" borderopacity="1.0" id="base" inkscape:current-layer="layer1" inkscape:cx="103.14636" inkscape:cy="529.83055" inkscape:document-units="px" inkscape:pageopacity="0.0" inkscape:pageshadow="2" inkscape:window-height="1058" inkscape:window-maximized="1" inkscape:window-width="1920" inkscape:window-x="0" inkscape:window-y="22" inkscape:zoom="0.7" pagecolor="#ffffff" showgrid="false">
	</sodipodi:namedview>
<g id="layer1" inkscape:groupmode="layer" inkscape:label="Layer 1">
	<path id="path4201" inkscape:connector-curvature="0" class="st0" d="M303,778.7c-1.5-3.4-7.5-16.5-13.3-29.3
		c-22.9-50.1-23.9-52.8-20.6-59.1c1-1.8,5.6-9.1,10.3-16.1c10.5-15.7,11.8-18.2,11.8-22.5c0-2.1-2.4-8.9-6-17
		c-3.6-8.1-6.2-15.6-6.5-18.5c-0.5-4.6-0.1-5.8,5.6-17.2c3.4-6.7,9.5-18.2,13.6-25.5c10.7-19,11.9-22.4,11.9-32.6
		c0-4.7-0.7-12.4-1.5-17.2c-2.4-13.8-8.1-34.7-11.3-41.2c-6-12.2-16.3-22.5-29.6-29.5c-3.6-1.9-6.7-3.4-7-3.4s-0.4,5.9-0.3,13
		c0.1,12.9-0.8,22.4-2.2,22.4c-0.4,0-1.3-2.7-2-6.1c-3.2-15.6-12.4-27.7-26.2-34.4l-7.9-3.8l-0.7,17c-0.4,10.3-1.7,23.3-3.2,33.1
		c-1.4,8.8-2.5,17.3-2.5,18.7c0,3.4,7.4,16,13.2,22.5c5.5,6.2,17.9,14.7,22.7,15.6l3.4,0.6v58.1c0,32-0.4,57.7-0.8,57.2
		c-0.5-0.5-10.3-21.5-21.8-46.7c-11.5-25.1-29.8-65-40.6-88.5c-10.8-23.5-24.4-53.2-30.2-65.9c-20.7-45.3-37.3-81.3-42.2-91.8
		l-5-10.7l33.1-71.9c18.2-39.5,35.6-77.4,38.7-84.2c13.6-29.5,47.3-102.8,57.2-124.3c13.7-30,12.4-27.7,14.3-25.8
		c1.1,1.1,1.6,4.5,1.9,13.6c0.5,14,1.2,17,6,24.4c3.1,4.8,6.1,12.3,6.1,15.1c0,0.6-1.9-1-4.2-3.5c-2.3-2.5-5.7-5.1-7.6-5.7
		c-3.1-1-3.6-0.9-5.6,1.3c-4.1,4.7-12.5,34-26.2,91.1c-11.3,47-13.5,60.5-10.9,66.8c0.8,1.8,5.2,7.3,9.8,12.1
		c8.2,8.5,11.3,13.4,12.7,20.4l0.7,3.4l-6.3-6c-3.4-3.3-7.8-6.8-9.6-7.7c-4.7-2.5-12.7-3.1-16.9-1.3l-3.5,1.4l-4.7,24
		c-8.1,41.6-8.9,51.7-4.7,58.5c3.9,6.4,16,9.4,29.6,7.3c10.4-1.6,14-3.6,15.2-8.3c0.8-3.2,0.6-4.4-1.4-8.1
		c-2.2-4.1-7.4-9.5-12.8-13.5c-2.5-1.8-2.4-1.8,3.3-1.2c15,1.5,30.6,16.2,36.6,34.8c0.9,2.9,1.9,5,2.2,4.7
		c1.2-1.2-1.9-17.1-4.6-23.5c-1.6-3.9-2.8-7.1-2.7-7.3c0.5-0.5,8,4.8,11.8,8.4c2.1,2,4.7,5.1,5.8,6.9c3.4,5.5,3,2.1-1.3-10.3
		c-8.8-25.4-9.1-26.6-9.2-38.8c-0.1-10.8,0.1-11.6,3.1-18c6-12.7,16.4-20.5,37.7-28.2c14.8-5.4,21.5-9.1,27.5-15
		c6.8-6.7,8.3-9.8,8.3-17.5c0-7.6-2.3-12.6-8.1-17.9c-8.9-8-19.9-12.1-30.6-11.4c-7.8,0.6-13.3,2.9-21.5,9.1
		c-7.4,5.6-11.3,11-13.5,18.8c-2,7-2,6.9-3.9,5.3c-2.6-2.1-5.2-8.2-5.9-13.5c-0.6-4.6-0.4-5.3,2.4-8.9c4.2-5.3,5.1-8.1,5.1-15.9
		c0-6.1,0.5-7.7,5.2-17.4l5.2-10.6l-0.3-15.9c-0.3-14.8-0.1-16.2,1.8-20.2c2.7-5.2,5.9-9.9,6.5-9.3c0.2,0.2-0.1,3.3-0.7,6.8
		c-0.9,5.3-0.8,7.5,0.4,12.3c2.4,9.3,7.3,21.3,9.9,24.1c2.3,2.5,2.6,2.6,15.6,2.6c16.2,0,24.4-2.1,28.8-7.1l2.7-3.2l-0.7,2.9
		c-0.8,3.5-3.4,6.4-8.3,9.6c-13.9,9-17.6,11.8-18.8,14c-1.9,3.6-0.3,4.9,9.5,8c13.7,4.4,23.7,12.3,29,22.9c1.9,3.9,2.3,6.1,2.3,14.9
		c0,9.2-0.3,10.9-2.7,16.2c-5.7,12.2-11.4,17.1-34.2,29.2c-17.5,9.3-19.6,10.8-22.7,16.1c-1.7,3-2.3,5.4-2.2,9.9
		c0.1,7.2,0.6,8.1,14.7,27.5c14,19.2,16.4,23.7,21.9,42.2l0.9,2.9l1.3-3.9c2.6-8.1,6.9-15,12.1-19.8c6-5.5,12.2-9.4,11.2-7.2
		c-4.4,10.3-6.5,17.1-7,23.5c-0.6,8-0.2,7.7,3.4-2.2c3.8-10.5,11.9-20.4,21.7-26.5c3.4-2.1,12.4-4.7,16.1-4.7l3,0.1l-2.5,1.7
		c-5,3.4-11,9.6-12.9,13.1c-4,7.8-1.8,12.7,6.8,15.2c6.7,2,22.7,2.3,27.8,0.5c5-1.7,9.4-6.8,10.9-12.3c1.5-5.7,0.3-15.2-6.7-52.2
		l-4.7-24.5l-3.2-1.3c-8.2-3.4-16.8-0.6-26.6,8.7l-6.4,6.2l0.7-3.4c1.4-7,4.5-11.8,13-20.8c10.8-11.3,11.6-13.3,10.1-24.6
		c-1.6-11.7-7-36.5-14.7-67.7C372,126,365.2,103,361.5,99c-1.9-2.2-2.4-2.3-6-1.3c-2.8,0.8-4.8,2.3-7.2,5.5
		c-1.8,2.4-3.5,4.2-3.8,3.9c-1.1-1.1,2.1-9.3,6.3-16.6l4.5-7.7l1-14c0.9-13.1,2-17.7,3.8-15.8c0.4,0.4,4.3,8.5,8.6,18
		c4.3,9.5,16.9,36.9,28,61c33.5,72.8,100.1,217.5,102.5,222.7l2.2,4.9l-31.3,68.3c-17.2,37.6-35.5,77.4-40.6,88.5
		c-41.4,90-66.8,145.3-67.5,147c-0.4,1.1-0.8-24.4-0.9-56.7l-0.1-58.6l3.3-0.6c4.7-0.9,14.8-7.7,21.2-14.3c3-3.1,7.7-9.4,10.4-14.1
		l5-8.5l-1.3-8.2c-3.8-23.7-4.5-30.2-5.1-45.4l-0.6-16.5l-7.9,4c-13.9,7-22.9,18.8-26.1,34.3c-0.7,3.4-1.6,6.1-1.9,6.1
		c-1.6,0-3.1-15.2-2.5-25.1l0.7-10.3l-3.2,1.6c-4.5,2.3-13,11.1-15.6,16.1c-5.4,10.7-6.1,18.9-3.5,45.7c3.3,34.4,3.1,35.1-17.2,66.5
		c-16,24.7-20,32-20,36.7c0,2.2,1.9,10.7,4.2,18.8c2.4,8.1,4.3,16.3,4.3,18.2c0,3.9-1.5,6.6-14.1,24.5c-13.4,19.1-13.6,20-8.8,29.5
		c3.7,7.4,8.1,12.4,13.1,14.9c3.4,1.7,5.3,2,13.4,1.6c10.9-0.5,15.9-2.6,26.4-10.9l6.2-4.9l-1.4,3.3c-2.6,6-25.9,58.2-29.5,66
		c-1.9,4.2-3.8,7.6-4.1,7.6C306,784.8,304.5,782.1,303,778.7L303,778.7z"/>
</g>
</svg>
