<?xml version="1.0" encoding="utf-8"?>
<!-- Generator: Adobe Illustrator 25.4.1, SVG Export Plug-In . SVG Version: 6.00 Build 0)  -->
<svg version="1.1"
	 id="svg2" xmlns:cc="http://creativecommons.org/ns#" xmlns:dc="http://purl.org/dc/elements/1.1/" xmlns:inkscape="http://www.inkscape.org/namespaces/inkscape" xmlns:rdf="http://www.w3.org/1999/02/22-rdf-syntax-ns#" xmlns:sodipodi="http://sodipodi.sourceforge.net/DTD/sodipodi-0.dtd" xmlns:svg="http://www.w3.org/2000/svg"
	 xmlns="http://www.w3.org/2000/svg" xmlns:xlink="http://www.w3.org/1999/xlink" x="0px" y="0px" viewBox="0 0 629 1200"
	 style="enable-background:new 0 0 629 1200;" xml:space="preserve">
<style type="text/css">
	.st0{fill-rule:evenodd;clip-rule:evenodd;fill:#FFFFFF;stroke:#FFFFFF;}
	.st1{fill-rule:evenodd;clip-rule:evenodd;stroke:#000000;stroke-width:0.2975;}
	.st2{stroke:#000000;stroke-miterlimit:10;}
</style>
<sodipodi:namedview  bordercolor="#666666" borderlayer="true" borderopacity="1.0" id="base" inkscape:bbox-nodes="false" inkscape:bbox-paths="false" inkscape:current-layer="layer1" inkscape:cx="186.66223" inkscape:cy="630.2506" inkscape:document-units="px" inkscape:guide-bbox="true" inkscape:object-nodes="true" inkscape:pageopacity="0.0" inkscape:pageshadow="2" inkscape:showpageshadow="false" inkscape:snap-bbox="true" inkscape:snap-smooth-nodes="true" inkscape:window-height="1027" inkscape:window-maximized="1" inkscape:window-width="1920" inkscape:window-x="-5" inkscape:window-y="-5" inkscape:zoom="0.50000003" pagecolor="#ffffff" showgrid="false" showguides="false" units="px">
	<sodipodi:guide  id="guide4147" inkscape:color="rgb(0,0,255)" inkscape:label="" orientation="1,0" position="314.5,600">
		</sodipodi:guide>
</sodipodi:namedview>
<g id="layer2" transform="translate(0,782)" inkscape:groupmode="layer" inkscape:label="Falkreath">
	<path id="path4187-2" inkscape:connector-curvature="0" class="st0" d="M217.7-781.5c-69,0-41.9,65.7-28.2,101.4
		c-10.9,6.2-19.3,13.8-25.3,18c-2.9-13.6-2.7-32.9-0.8-59.1c3.1-42.2-22-33.1-36.9,2.4c-11.5,27.5-9.2,65.5-5.2,87.9
		c-29.8,31.8-51.3,40-73.8,86.8c-17.2,35.8-9.2,142.2,21,206.6c-17,7.2-37.3-3.6-60.9-25c-7.5,19.8-2.8,74.6,48.6,99.7
		c80.5,35.1,128.3,94.1,164.7,161.5c6.4,13.1-1.3,19-12.2-4.9c-24.8-60.7-73-85.5-114.1-98.4L56-226.1c-35.8-14-60.3-12.3-54.7,31.8
		c12.3,80,47.3,137.5,97.5,166.6c18.1,15.4,32,30.6,32.5,53.5v63c1.1,17.8,4.5,35.3,14,52l55.1,94.9c9.5,18.2,12.1,34.9,11.5,50.9
		l-1.5,50.7c0.1,24.9,1.7,49.4,35.2,66c36.9,11.1,60.9-25.4,39.6-47.7c-19.8-19.2-44.7,4.3-36.3,20.1c7.3,14.3,28.2,6,24.1-6.3
		c-1-2.6-3.5-4.7-5.1-5.4c0.2-7.6,9.9-1.1,11.4,2.4c2.5,7.7,0.6,12.7-2.3,16.6c-10,13.1-36.8,6.4-35.9-15.6
		c0.5-12.9,14.3-25.4,27.1-25.3c14.3,0.1,26.5,10,30.9,25.4c3.3,11.8-3,25.7-11.7,34.4l-0.2,15.6h54.7l-0.2-15.6
		c-8.7-8.7-15-22.6-11.7-34.4c4.4-15.4,16.6-25.3,30.9-25.4c12.9-0.1,26.6,12.4,27.1,25.3c0.8,22-26,28.7-35.9,15.6
		c-3-3.9-4.9-8.9-2.3-16.6c1.5-3.6,11.1-10,11.4-2.4c-1.6,0.7-4.1,2.8-5.1,5.4c-4.1,12.3,16.9,20.6,24.1,6.3
		c8.4-15.8-16.5-39.3-36.3-20.1c-21.2,22.3,2.7,58.8,39.6,47.7c33.5-16.6,35-41.1,35.2-66l-1.5-50.7c-0.7-16,2-32.7,11.5-50.9
		L449,205l34.6-64.2c9.6-16.7,12.9-34.2,14-52v-63c0.5-23,14.4-38.2,32.5-53.5c50.2-29.1,85.2-86.6,97.5-166.7
		c5.6-44-18.9-45.8-54.7-31.8l-38.5,21.6c-41.1,13-89.3,37.7-114.1,98.4c-10.9,23.9-18.6,18-12.2,4.9
		c36.4-67.5,84.2-126.4,164.7-161.5c51.4-25.1,56.1-79.8,48.6-99.7c-23.6,21.4-43.9,32.2-60.9,25c30.2-64.5,38.2-170.9,21-206.6
		c-22.5-46.9-44-55-73.8-86.8c4-22.5,6.3-60.5-5.2-87.9c-14.9-35.5-39.9-44.6-36.9-2.4c1.9,26.1,2.1,45.5-0.8,59.1
		c-6-4.2-14.4-11.8-25.3-18c13.7-35.7,40.8-101.4-28.2-101.4c-39.1,0-81,19.4-96.8,27C298.7-762.1,256.8-781.5,217.7-781.5
		L217.7-781.5z M409.4-738.9c-0.1,8-5.4,19.2-11.4,29.7c-8.3-5.8-17.7-12-27.5-17.6C381.4-731.6,394.7-737.7,409.4-738.9
		L409.4-738.9z M219.5-737.1c15.6,0.9,29,6.1,36.5,12.2c-9.8,5.6-17.5,11.6-25.8,17.5C224.1-717.9,219.5-729.1,219.5-737.1
		L219.5-737.1z M314.5-696.2c15.7,7.8,32.1,18,44.1,28c-12.7,10.7-26.4,21.1-44.1,30.6c-15.1-6.3-29.2-16.7-44.3-31.1
		C284.2-678.2,297.8-687.8,314.5-696.2z M227-640.1l34.1,27.1l-28.4,9.4c-19.5,6.8-19.3-2.1-25.3-8.3l-10.1,1.2L127.7-497
		c-23.9,41.8-23.1,31-23.8,8.1c-3.9-46.4,20.1-66.1,40.8-83.5L227-640.1z M402-640.1c28.6,20.4,53.9,42.8,82.3,67.6
		c20.7,20.6,43.7,46.8,40.8,83.5c-0.7,22.9,0.1,33.7-23.8-8.1l-67.1-111.3l-11.4-1.9c-6,6.2-6.9,13.6-26.4,6.8l-28.4-9.4L402-640.1
		L402-640.1z M314.5-578.4l67,28.6c54.9,36.9,28.1,29.9-5.1,14.4c-19.9-9.2-37-11.7-61.9,0.6c-24.9-12.4-41.9-9.8-61.9-0.6
		c-33.2,15.5-60,22.4-5.1-14.4L314.5-578.4z M314.5-510.9l31.9,14.5c-11.7,6.7-23.2,15.4-31.9,25.7c-7.6-7.8-17.3-16.7-31.9-25.7
		L314.5-510.9z M407.9-458.4c67.6-0.4,99.6,82.5,88.9,129.6c-8.5,39.4-35.3,49.5-51.3,28.5c-15.2-19.9-53.9-85.7-88.4-125.8
		c11.4-16.3,24.7-29.6,40.6-31.6C401.2-458.2,404.6-458.4,407.9-458.4z M214.8-456.1c2.6,0,5.2,0.1,7.9,0.4
		c15.9,2.3,37.7,10.7,48.6,29.8c-31.7,33.1-71.1,103.7-85.3,122.2c-28.3,36.8-47.6,0.4-50.6-28.1C129-394.2,162.1-455.7,214.8-456.1
		L214.8-456.1z M314.5-370.6c28.7,33.4,71.8,103.8,73.6,124.4c3.7,43.2-40.3,117.1-73.6,143.6c-34.2-25.4-75.1-95.9-71.9-143.6
		C243.8-264.7,287.1-337.7,314.5-370.6z"/>
	<g id="g4203" transform="matrix(3.3650078,0,0,3.3584541,-402.24662,-886.89158)">
		
			<path id="path4187" inkscape:connector-curvature="0" sodipodi:nodetypes="scccscscccccccccccccccccccccsscsccccscssccccccccccccccccsccccccccccccccccccccscccccccccccssccsssccccccccccccccscccccccccccccccccccccccccccscscccscssccssccsscccccccccccccccccccccccccccccccsccccs" class="st1" d="
			M184.2,31.4c-20.5,0-12.5,19.6-8.4,30.2c-3.2,1.8-5.7,4.1-7.5,5.3c-0.9-4-0.8-9.8-0.3-17.6c0.9-12.6-6.5-9.9-11,0.7
			c-3.4,8.2-2.7,19.5-1.5,26.2c-8.9,9.5-15.2,11.9-21.9,25.8c-5.1,10.7-2.7,42.3,6.2,61.5c-5.1,2.1-11.1-1.1-18.1-7.5
			c-2.2,5.9-0.8,22.2,14.4,29.7c23.9,10.4,38.1,28,49,48.1c1.9,3.9-0.4,5.7-3.6-1.5c-7.4-18.1-21.7-25.5-33.9-29.3l-11.4-6.4
			c-10.6-4.2-17.9-3.7-16.3,9.5c3.7,23.8,14.1,40.9,29,49.6c5.4,4.6,9.5,9.1,9.7,15.9v18.8c0.3,5.3,1.3,10.5,4.2,15.5l16.4,28.3
			c2.8,5.4,3.6,10.4,3.4,15.2l-0.4,15.1c0,7.4,0.5,14.7,10.4,19.7c11,3.3,18.1-7.6,11.8-14.2c-5.9-5.7-13.3,1.3-10.8,6
			c2.2,4.3,8.4,1.8,7.2-1.9c-0.3-0.8-1-1.4-1.5-1.6c0.1-2.3,2.9-0.3,3.4,0.7c0.8,2.3,0.2,3.8-0.7,5c-3,3.9-10.9,1.9-10.7-4.7
			c0.1-3.9,4.2-7.6,8.1-7.5c4.2,0,7.9,3,9.2,7.6c1,3.5-0.9,7.6-3.5,10.2l-0.1,4.6h16.3l-0.1-4.6c-2.6-2.6-4.5-6.7-3.5-10.2
			c1.3-4.6,4.9-7.5,9.2-7.6c3.8,0,7.9,3.7,8.1,7.5c0.3,6.6-7.7,8.5-10.7,4.7c-0.9-1.2-1.5-2.7-0.7-5c0.4-1.1,3.3-3,3.4-0.7
			c-0.5,0.2-1.2,0.8-1.5,1.6c-1.2,3.7,5,6.1,7.2,1.9c2.5-4.7-4.9-11.7-10.8-6c-6.3,6.6,0.8,17.5,11.8,14.2c10-5,10.4-12.3,10.4-19.7
			l-0.4-15.1c-0.2-4.8,0.6-9.7,3.4-15.2l2.2-14l-9.6,17c-1.3,2.3-2.4,5.2-2.7,10.9V359c-0.6-2.6-3-6.5-8-8.4
			c3.3-13.9,2.7-21.3-3-28.1c-0.3,1.5-1.1,5.4-2.9,8.4c3.2,6.5,1.1,12.6-1.4,15.9c-3.4,4.4-7.7,3.7-12.5,3.7l3.7-5.6l-5.2-6.6
			l-10,12.3c-5.1,1.9-7.4,5.8-8,8.4v-10.9c-0.3-5.7-1.4-8.6-2.7-10.9c-5.2-13.8-19.3-26.9-21.1-41.7l-0.3-21.3
			c-0.3-10.7-5.7-16.7-13.1-21.6c-16.5-11.3-23.3-26.6-24.7-44.3c-0.7-7.3,2.3-8.9,8.8-5.1l11,5.6c16.9,6.1,25.9,14,30.5,23.4
			l2.5,5.1c4.1,7.6,14.4,11,10.1-1.3c-11-26.7-26.7-42.3-51.8-55.7c-8.3-4-12-10.8-12.6-15.4c2.7,2.9,5.2,5,8.4,5.2
			c10.5,0.6,13-4.8,10-11.3c-7.6-19.4-8.9-44.7-4.5-53.7c4.1-8.2,10.7-15.9,23.3-26.3c-7.3-10.8-2.7-30.7,1.2-34.7
			c-1.3,16.2-1.1,28,2.5,32.1c3.8-3.2,7-5.9,11.2-8.9l3.2,3.7c-10.2,7.6-20.3,16.2-30.2,27c-5.3,5.7-7.3,10.7-6.3,22.4
			c1,12,6.9,16.8,16.1,1.5L180,88.8c4.6,2.9,7,2,9.4,1.2c6.6-2.3,12.8-4.7,18.5-7c-11.7-6.9-24.1-17.2-29.6-30.5
			c-3-7.2-4.6-16.9,5.3-17.1c7.3-0.1,15.7,2.9,23,6.4l-4.3,2.3c-4.7-2.3-9.3-4.4-15.6-5.3c-8-1.1-8.6,4-6.2,11
			c1.2,3.6,4.2,8.2,6.7,11.2c7.5,9,20.1,19,25.9,19.5c5.4-0.7,14-8.2,18.6-12l2.7,1.9c-2,2.1-6.9,6.5-16.2,12.6
			c5.7,2.3,11.9,4.7,18.5,7c2.4,0.8,4.8,1.7,9.4-1.2l19.1,32.9c9.2,15.3,15.1,10.5,16.1-1.5c1-11.7-1-16.7-6.3-22.4
			c-16.8-18.3-37.8-33.7-55.5-45l4.3-2.3c12.7,7.4,25.3,16.6,35.5,25.2c3.9-4.5,3.7-19.6,2.7-31.3c4.1,2.9,7.4,22.6,1.1,34.4
			c12.7,10.4,19.1,18.1,23.2,26.3c4.5,9,3.1,34.3-4.5,53.7c-3,6.6-0.5,11.9,10,11.3c3.2-0.2,5.7-2.3,8.4-5.2
			c-0.6,4.6-4.3,11.4-12.6,15.4c-25.1,13.4-40.8,28.9-51.8,55.7c-4.3,12.3,6,8.9,10.1,1.3l2.5-5.1c4.6-9.4,13.5-17.3,30.5-23.4
			l11-5.6c6.5-3.8,9.6-2.2,8.8,5.1c-1.4,17.7-8.2,33-24.7,44.3c-7.4,4.9-12.8,10.9-13.1,21.6l-0.3,21.3c-0.2,5.2-2.4,12-11.4,24.7
			c2.3,1.4,14.2-14.3,14.2-14.3c2.8-5,3.8-10.2,4.2-15.5v-18.8c0.2-6.8,4.3-11.4,9.7-15.9c14.9-8.7,25.3-25.8,29-49.6
			c1.7-13.1-5.6-13.6-16.2-9.5l-11.4,6.4c-12.2,3.9-26.5,11.2-33.9,29.3c-3.2,7.1-5.5,5.3-3.6,1.5c10.8-20.1,25-37.7,49-48.1
			c15.3-7.5,16.7-23.8,14.4-29.7c-7,6.4-13,9.6-18.1,7.5c9-19.2,11.4-50.9,6.2-61.5c-6.7-14-13.1-16.4-21.9-25.8
			c1.2-6.7,1.9-18-1.5-26.2c-4.4-10.6-11.9-13.3-11-0.7c0.6,7.8,0.6,13.5-0.3,17.6c-1.8-1.2-4.3-3.5-7.5-5.3
			c4.1-10.6,12.1-30.2-8.4-30.2c-11.6,0-24.1,5.8-28.8,8C208.3,37.2,195.8,31.4,184.2,31.4z M242.4,35.5c12.9,0.2,6.5,16.6,2.8,22.6
			c-0.4-0.3-2.3-1.7-2.7-2c1.9-3.1,3.3-6.4,4.1-10.6c1.9-10.8-11.2-6-17.2-3.9c-12.4,4.4-23.5,11.7-34,18.8l-3.1-2.9
			c9.4-6.7,18.1-11.9,28-16.2C227.6,38.1,235.1,35.3,242.4,35.5z M241.2,44.1c0,2.4-1.6,5.7-3.4,8.8c-2.5-1.7-5.3-3.6-8.2-5.2
			C232.9,46.2,236.8,44.4,241.2,44.1z M184.8,44.6c4.6,0.3,8.6,1.8,10.8,3.6c-2.9,1.7-5.2,3.5-7.7,5.2
			C186.1,50.3,184.8,47,184.8,44.6z M213,56.8c4.7,2.3,9.5,5.4,13.1,8.3c-3.8,3.2-7.8,6.3-13.1,9.1c-4.5-1.9-8.7-5-13.2-9.2
			C204,62.1,208,59.3,213,56.8z M187,73.5l10.1,8.1l-8.4,2.8c-5.8,2-5.7-0.6-7.5-2.5l-3,0.4l-20.7,33.8c-7.1,12.4-6.9,9.2-7.1,2.4
			c-1.2-13.8,6-19.7,12.1-24.9L187,73.5z M239,73.5c8.5,6.1,16,12.7,24.4,20.1c6.2,6.1,13,13.9,12.1,24.9c-0.2,6.8,0,10-7.1-2.4
			L248.5,83l-3.4-0.6c-1.8,1.9-2.1,4-7.9,2l-8.4-2.8L239,73.5z M212.6,316.7c-12.4-0.4-20.4,15.2-15.9,31.1l6-7.2
			c-1.9-7.4,2.7-18.9,11.3-16.8c1.1-1.5,2.3-4.3,2.6-6.5C215.2,317,213.9,316.8,212.6,316.7z"/>
		<path id="path4205" inkscape:connector-curvature="0" sodipodi:nodetypes="cccccccc" class="st1" d="M254.1,250.8l1.6-12.6
			c7.9-6.9,9.1-8.4,12.2-13.1c5.1-7.4,13.1-12.3,20.8-14l-15.5,15.3c-8.2,8.8,6.2,15.7,11.7,5.3c-0.1,3.3-6.6,14.1-16.4,13.8
			C260.9,245.7,259.8,247.5,254.1,250.8z"/>
		<path id="path4209" inkscape:connector-curvature="0" sodipodi:nodetypes="cccscccssscc" class="st1" d="M257.6,268
			c0,0-17.5,16.4-22.9,25.3c5,12.5,14.5,11.9,19,5.7c2.4-3.9,3.2-7.3,3.1-16.8C256.7,274.2,257.6,268,257.6,268z M248.3,281.8
			c0.2,0,0.4,0,0.7,0c3.8,0.3,4.7,4.9,4.4,8.8c-0.2,3.4-2.2,9.2-7.1,8.9c-4-0.2-5.4-5.1-4.8-8.8C242.1,286.7,244.7,282,248.3,281.8
			L248.3,281.8z"/>
		
			<path id="path4169" inkscape:connector-curvature="0" sodipodi:nodetypes="cccccccsssccccccccccccccccccccsccccccccscscscccssccscsc" class="st1" d="
			M213,85.2l-20.5,8.7c-17.7,7.9-18.8,17.3-9.3,20.5c5.7,2.3,8.2-6.5,24.7-5.7l-16.6,6.9c8.7,3.6,13,7.6,17.2,12.2l-4.2,4.6
			c-3.5-3.8-7.4-7-12.5-8.8c-2.5-0.9-5.1-1.3-7.8-1.3c-8-0.1-16.4,3.4-21.6,10.4c-8.6,11.6-11.7,23.5-8.3,38.3
			c4.3,14.6,18.1,24.1,29.9,2c7.8-12.7,17-27.1,26.5-38.2c8-9.9,15.2-15.4,24-19.2l-16.6-6.9c16.5-0.8,19,8,24.7,5.7
			c9.5-3.1,8.4-12.6-9.3-20.5L213,85.2z M213,91.8l19.9,8.5c16.3,11,8.4,8.9-1.5,4.3c-5.9-2.7-11-3.5-18.4,0.2
			c-7.4-3.7-12.5-2.9-18.4-0.2c-9.9,4.6-17.8,6.7-1.5-4.3L213,91.8z M213,112l9.5,4.3c-3.5,2-6.9,4.6-9.5,7.6
			c-2.3-2.3-5.2-5-9.5-7.6L213,112z M232.6,122.9c-13.5,4.2-46.9,57.7-48.9,65.8c-0.6,12.2,9.5,40.8,29.3,54.3
			c19.4-13.2,30.3-44,29.4-54.3c-0.6-4.8-15.3-28.4-24.9-40.8l4.2-5.7c7.6,7.5,18.8,26.5,26.8,38.1c10.3,11.1,20.7,0,23.1-9.4
			c3.3-14.8,1.7-27.9-8.3-38.3C257.8,125.9,246.5,118.6,232.6,122.9L232.6,122.9z M267.2,166.2c-2.5,11.7-10.5,14.7-15.2,8.5
			c-4.5-5.9-16-25.5-26.3-37.5c3.4-4.9,7.3-8.8,12.1-9.4C259.9,125,270.5,151.5,267.2,166.2z M185.7,128.4
			c4.7,0.7,11.2,3.2,14.4,8.9c-9.4,9.8-21.1,30.9-25.3,36.4c-8.4,11-14.2,0.1-15-8.4C157.8,145.8,168.7,126.6,185.7,128.4
			L185.7,128.4z M213,153.7c8.5,9.9,21.3,30.9,21.9,37.1c1.1,12.9-12,34.9-21.9,42.8c-10.2-7.6-22.3-28.6-21.4-42.8
			C192,185.3,204.9,163.5,213,153.7z"/>
		<path id="path4194" inkscape:connector-curvature="0" sodipodi:nodetypes="ccccccccc" class="st1" d="M201.9,318.1
			c-0.2-3.8,0.3-8,1.7-13.1l9.5-34.4l9.5,34.4c3.7,14,0.9,22-3.7,29c-2.1-2.4-3-3.5-4.8-6.3c3.3-5.2,9-13.8-1-22.9
			c-4.1,3.7-5.6,7.3-5.8,10.5C205.2,315.9,203.5,317,201.9,318.1L201.9,318.1z"/>
		<ellipse id="path4200" class="st2" cx="247.1" cy="291.8" rx="3.8" ry="4.1"/>
		<path id="path4286" inkscape:connector-curvature="0" sodipodi:nodetypes="cccccccc" class="st1" d="M171.9,250.8l-1.6-12.6
			c-7.9-6.9-9.1-8.4-12.2-13.1c-5.1-7.4-13.1-12.3-20.8-14l15.5,15.3c8.2,8.8-6.2,15.7-11.7,5.3c0.1,3.3,6.6,14.1,16.4,13.8
			C165.1,245.7,166.2,247.5,171.9,250.8L171.9,250.8z"/>
		<path id="path4157" inkscape:connector-curvature="0" sodipodi:nodetypes="ccccc" class="st1" d="M210.2,325.8
			c-2.9,1.3-4.3,3.3-5,5.8c2.7,5.2,8.6,11.2,12.8,16.1c2.6-2.4,4.3-5.7,4.2-7.5C218.1,336.9,214,331.2,210.2,325.8z"/>
		<path id="path4170" inkscape:connector-curvature="0" sodipodi:nodetypes="cccscccssscc" class="st1" d="M168.4,268
			c0,0,17.5,16.4,22.9,25.3c-5,12.5-14.5,11.9-19,5.7c-2.4-3.9-3.2-7.3-3.1-16.8C169.3,274.2,168.4,268,168.4,268L168.4,268z
			 M177.7,281.8c-0.2,0-0.4,0-0.7,0c-3.8,0.3-4.7,4.9-4.4,8.8c0.2,3.4,2.2,9.2,7.1,8.9c4-0.2,5.4-5.1,4.8-8.8
			C183.9,286.7,181.3,282,177.7,281.8L177.7,281.8z"/>
		<ellipse id="ellipse4172" class="st2" cx="178.9" cy="291.8" rx="3.8" ry="4.1"/>
	</g>
</g>
<polygon class="st1" points="428.5,1017.7 483.7,922.8 435.9,970.7 "/>
</svg>
