<?xml version="1.0" encoding="utf-8"?>
<!-- Generator: Adobe Illustrator 25.4.1, SVG Export Plug-In . SVG Version: 6.00 Build 0)  -->
<svg version="1.1" id="Слой_1" xmlns="http://www.w3.org/2000/svg" xmlns:xlink="http://www.w3.org/1999/xlink" x="0px" y="0px"
	 viewBox="0 0 50 50" style="enable-background:new 0 0 50 50;" xml:space="preserve">
<style type="text/css">
	.st0{fill:none;stroke:#000000;stroke-width:2;stroke-miterlimit:10;}
	.st1{fill:none;stroke:#FFFFFF;stroke-miterlimit:10;}
</style>
<line class="st0" x1="27.2" y1="19.7" x2="45.3" y2="12.4"/>
<polyline class="st0" points="45.4,37.6 21,27.5 30,23.9 "/>
<polyline class="st1" points="30,23.9 39.2,20.2 44.3,20.2 44.2,29.7 39.1,29.7 20.5,22.5 25.6,20.4 "/>
<line class="st1" x1="44.8" y1="12.6" x2="26.9" y2="19.9"/>
<polyline class="st0" points="24.4,30 37.9,24.8 33.9,23.2 "/>
<polyline class="st0" points="31.3,22.2 21,18.2 4.6,24.8 21,31.3 24.4,30 "/>
<polyline class="st1" points="45,37.4 21,27.5 30,23.9 "/>
<polyline class="st0" points="30,23.9 39.2,20.2 44.3,20.2 44.2,29.7 39.1,29.7 20.5,22.5 27.4,19.7 "/>
<polyline class="st1" points="31.3,22.2 21,18.2 4.6,24.8 21,31.3 24.4,30 "/>
<polyline class="st1" points="27,28.9 37.8,24.8 33.8,23.2 "/>
<polyline class="st1" points="30,23.9 39.2,20.2 44.3,20.2 44.2,29.7 39.1,29.7 20.5,22.5 24.7,20.8 "/>
</svg>
