<?xml version="1.0" encoding="utf-8"?>
<!-- Generator: Adobe Illustrator 25.4.1, SVG Export Plug-In . SVG Version: 6.00 Build 0)  -->
<svg version="1.1" id="Слой_1" xmlns="http://www.w3.org/2000/svg" xmlns:xlink="http://www.w3.org/1999/xlink" x="0px" y="0px"
	 viewBox="0 0 50 50" style="enable-background:new 0 0 50 50;" xml:space="preserve">
<style type="text/css">
	.st0{fill:none;stroke:#000000;stroke-width:2;stroke-miterlimit:10;}
	.st1{fill:none;stroke:#FFFFFF;stroke-miterlimit:10;}
</style>
<line class="st0" x1="27.1" y1="19.7" x2="35" y2="12.4"/>
<polyline class="st0" points="35.1,37.6 24.4,27.5 28.4,23.9 "/>
<polyline class="st1" points="28.4,23.9 32.3,20.2 34.6,20.2 34.6,29.7 32.3,29.7 24.2,22.5 26.4,20.4 "/>
<line class="st1" x1="34.6" y1="12.8" x2="27" y2="19.9"/>
<polyline class="st0" points="25.9,30 31.8,24.8 30.1,23.2 "/>
<polyline class="st0" points="28.9,22.2 24.4,18.2 17.3,24.8 24.4,31.3 25.9,30 "/>
<polyline class="st1" points="34.7,37.3 24.4,27.5 28.4,23.9 "/>
<polyline class="st0" points="28.4,23.9 32.3,20.2 34.6,20.2 34.6,29.7 32.3,29.7 24.2,22.5 27.2,19.7 "/>
<polyline class="st1" points="28.9,22.2 24.4,18.2 17.3,24.8 24.4,31.3 25.9,30 "/>
<polyline class="st1" points="27.1,28.9 31.7,24.8 30,23.2 "/>
<polyline class="st1" points="28.4,23.9 32.3,20.2 34.6,20.2 34.6,29.7 32.3,29.7 24.2,22.5 26.1,20.8 "/>
</svg>
