<?xml version="1.0" encoding="utf-8"?>
<!-- Generator: Adobe Illustrator 25.4.1, SVG Export Plug-In . SVG Version: 6.00 Build 0)  -->
<svg version="1.1" id="Слой_1" xmlns="http://www.w3.org/2000/svg" xmlns:xlink="http://www.w3.org/1999/xlink" x="0px" y="0px"
	 viewBox="0 0 50 50" style="enable-background:new 0 0 50 50;" xml:space="preserve">
<style type="text/css">
	.st0{fill:none;stroke:#000000;stroke-width:2;stroke-miterlimit:10;}
	.st1{fill:none;stroke:#FFFFFF;stroke-miterlimit:10;}
</style>
<line class="st0" x1="25.2" y1="19.7" x2="17.3" y2="12.4"/>
<polyline class="st0" points="17.3,37.6 27.9,27.5 24,23.9 "/>
<polyline class="st1" points="24,23.9 20,20.2 17.8,20.2 17.8,29.7 20.1,29.7 28.1,22.5 25.9,20.4 "/>
<line class="st1" x1="17.8" y1="12.8" x2="25.3" y2="19.9"/>
<polyline class="st0" points="26.5,30 20.6,24.8 22.3,23.2 "/>
<polyline class="st0" points="23.4,22.2 27.9,18.2 35.1,24.8 27.9,31.3 26.5,30 "/>
<polyline class="st1" points="17.7,37.3 27.9,27.5 24,23.9 "/>
<polyline class="st0" points="24,23.9 20,20.2 17.8,20.2 17.8,29.7 20.1,29.7 28.1,22.5 25.1,19.7 "/>
<polyline class="st1" points="23.4,22.2 27.9,18.2 35.1,24.8 27.9,31.3 26.5,30 "/>
<polyline class="st1" points="25.3,28.9 20.6,24.8 22.3,23.2 "/>
<polyline class="st1" points="24,23.9 20,20.2 17.8,20.2 17.8,29.7 20.1,29.7 28.1,22.5 26.3,20.8 "/>
</svg>
