<?xml version="1.0" encoding="utf-8"?>
<!-- Generator: Adobe Illustrator 25.4.1, SVG Export Plug-In . SVG Version: 6.00 Build 0)  -->
<svg version="1.1" id="Слой_1" xmlns="http://www.w3.org/2000/svg" xmlns:xlink="http://www.w3.org/1999/xlink" x="0px" y="0px"
	 viewBox="0 0 50 50" style="enable-background:new 0 0 50 50;" xml:space="preserve">
<style type="text/css">
	.st0{fill:none;stroke:#000000;stroke-width:2;stroke-miterlimit:10;}
	.st1{fill:none;stroke:#FFFFFF;stroke-miterlimit:10;}
</style>
<line class="st0" x1="22.8" y1="19.7" x2="4.7" y2="12.4"/>
<polyline class="st0" points="4.6,37.6 29,27.5 20,23.9 "/>
<polyline class="st1" points="20,23.9 10.8,20.2 5.7,20.2 5.8,29.7 10.9,29.7 29.5,22.5 24.4,20.4 "/>
<line class="st1" x1="5.2" y1="12.6" x2="23.1" y2="19.9"/>
<polyline class="st0" points="25.6,30 12.1,24.8 16.1,23.2 "/>
<polyline class="st0" points="18.7,22.2 29,18.2 45.4,24.8 29,31.3 25.6,30 "/>
<polyline class="st1" points="5,37.4 29,27.5 20,23.9 "/>
<polyline class="st0" points="20,23.9 10.8,20.2 5.7,20.2 5.8,29.7 10.9,29.7 29.5,22.5 22.6,19.7 "/>
<polyline class="st1" points="18.7,22.2 29,18.2 45.4,24.8 29,31.3 25.6,30 "/>
<polyline class="st1" points="23,28.9 12.2,24.8 16.2,23.2 "/>
<polyline class="st1" points="20,23.9 10.8,20.2 5.7,20.2 5.8,29.7 10.9,29.7 29.5,22.5 25.3,20.8 "/>
</svg>
